<?xml version="1.0" encoding="utf-8"?>
<!-- Generator: Adobe Illustrator 19.0.0, SVG Export Plug-In . SVG Version: 6.00 Build 0)  -->
<svg version="1.1" id="Camada_1" xmlns="http://www.w3.org/2000/svg" xmlns:xlink="http://www.w3.org/1999/xlink" x="0px" y="0px"
	 width="30px" height="30px" viewBox="0 0 110 110">
<style type="text/css">
	.st0{fill:#C1CBCD;}
	.st1{fill:#00D9FF;}
	.st2{fill:#FFC200;}
</style>
<path class="st0" d="M51.1,87.8H27.2V22.6h23.9c18,0,32.6,14.6,32.6,32.6C83.7,73.2,69.1,87.8,51.1,87.8 M34.8,80.2h16.3
	c13.8,0,25-11.2,25-25c0-13.8-11.2-25-25-25H34.8V80.2z"/>
<rect x="0.7" y="1" class="st1" width="104.4" height="7.6"/>
<rect x="0.7" y="101.8" class="st1" width="104.4" height="7.6"/>
<rect x="0.5" y="8.6" class="st2" width="7.6" height="93.2"/>
<rect x="101.3" y="8.6" class="st2" width="7.6" height="93.2"/>
<rect x="101.3" y="1" class="st0" width="7.6" height="7.6"/>
<rect x="101.3" y="101.8" class="st0" width="7.6" height="7.6"/>
<rect x="0.5" y="1" class="st0" width="7.6" height="7.6"/>
<rect x="0.5" y="101.8" class="st0" width="7.6" height="7.6"/>
</svg>
