<svg width="545" height="150" viewBox="0 0 545 218" fill="none" xmlns="http://www.w3.org/2000/svg">
  <path d="M369.901 149.518C369.489 155.547 370.27 160.227 368.473 164.69C366.122 170.532 361.931 172.906 355.533 171.896C349.604 170.961 347.001 167.283 346.505 161.532C345.447 149.03 346.313 136.503 345.868 124.001C345.321 108.612 330.232 97.4652 316.066 101.742C305.552 104.915 298.028 115.902 298.952 126.712C299.909 137.926 308.625 146.589 320.844 148.163C324.925 148.685 328.997 149.089 331.601 152.684C334.346 156.481 335.413 160.733 333.238 165.22C331.214 169.395 327.78 171.441 323.161 171.812C303.923 173.361 290.999 163.528 281.536 148.129C278.706 143.533 278.227 142.615 274.868 147.978C263.918 165.472 248.098 174.708 227.079 171.955C206.858 169.311 194.087 157.213 188.099 137.934C186.747 133.565 186.051 128.825 186.009 124.254C185.798 101.43 185.857 78.607 185.941 55.7836C185.975 46.4639 190.878 40.9572 198.428 41.2946C203.643 41.5302 207.128 44.1148 208.748 49.0821C210.083 53.1652 210.302 57.3914 210.277 61.6512C210.151 82.2266 209.974 102.811 209.949 123.387C209.932 134.356 216.499 143.432 226.609 146.884C238.819 151.06 251.574 145.014 255.47 133.203C259.888 119.808 253.531 106.338 240.817 102.474C237.366 101.422 233.705 101.093 230.228 100.117C223.687 98.2814 221.201 94.03 222.075 86.6975C222.73 81.2169 226.803 77.3021 232.714 77.0657C249.962 76.3926 262.785 84.3485 272.55 98.0373C274.155 100.285 275.624 102.643 277.069 104.814C279.252 104.335 279.504 102.702 280.067 101.557C291.025 79.4064 318.593 72.6545 338.839 79.5999C349.269 83.1781 356.465 90.7385 362.352 99.6031C365.24 103.955 366.768 104.478 369.439 99.4433C382.664 74.5323 424.886 67.9403 444.216 91.2686C445.829 93.213 447.701 94.9479 450.111 97.4652C450.892 92.094 450.027 87.8671 451.748 83.8344C454.125 78.2697 458.34 76.6871 463.858 76.8975C469.308 77.0994 472.205 80.1139 473.616 85.1394C476.067 93.8953 474.497 102.82 474.808 111.659C475.009 117.308 474.472 123.016 475.093 128.606C476.395 140.25 486.253 148.332 498.194 148.154C510.287 147.978 520.077 139.349 520.775 127.335C521.396 116.668 521.077 105.943 521.228 95.2424C521.261 92.826 521.329 90.3928 521.69 88.0109C522.89 80.2485 527.055 76.6534 534.193 77.0068C540.441 77.3189 544.732 81.991 544.891 89.299C545.102 98.5843 544.942 107.879 544.942 117.173C544.942 134.743 544.942 152.322 544.942 169.893C544.933 196.024 522.588 218.09 496.557 217.677C489.646 217.568 483.868 212.382 483.516 205.959C483.171 199.762 487.194 194.946 494.634 194.223C504.668 193.246 513.066 190.089 517.836 180.509C518.809 178.538 519.649 176.442 520.145 174.312C521.472 168.562 520.204 167.442 514.611 169.16C495.717 174.96 478.956 174.565 459.541 154.09C457.879 156.211 458.433 158.543 458.593 160.935C460.725 192.261 442.486 214.588 412.197 217.896C406.907 218.478 402.7 216.609 399.518 212.5C396.663 208.813 396.587 204.704 398.317 200.495C400.038 196.319 403.154 194.408 407.68 194.156C418.63 193.549 427.699 189.803 432.074 178.631C433.191 175.769 433.896 172.923 433.88 169.825C433.787 154.679 433.166 139.5 433.922 124.389C434.476 113.326 425.213 103.392 414.078 101.245C402.541 99.0226 391.977 105.589 387.72 117.477C384.126 127.495 388.828 138.979 398.905 144.779C402.448 146.816 406.302 147.868 410.342 148.34C419.528 149.417 423.282 153.357 422.266 160.766C421.115 169.185 414.893 172.982 406.185 172.14C390.76 170.65 379.759 162.332 369.892 149.527L369.901 149.518Z" fill="white"/>
  <path d="M125.959 109.773C125.187 122.275 121.181 133.548 112.23 142.565C103.018 151.834 91.3377 156.49 78.5145 156.49C54.2043 156.515 32.3799 133.506 33.2788 108.965C33.4301 104.781 35.1095 102.087 39.2157 101.649C43.977 101.152 45.9582 104.486 46.2778 108.519C47.0169 117.612 49.855 125.702 56.3461 132.277C65.7678 141.807 76.9613 144.627 89.6079 140.443C102.464 136.184 109.728 126.889 112.154 113.671C112.473 111.946 112.591 110.177 112.868 108.435C113.54 104.326 115.446 101.152 120.098 101.683C124.59 102.196 126.22 105.598 125.968 109.765L125.959 109.773Z" fill="white"/>
  <path d="M138.707 110.438C138.177 113.2 137.38 116.046 133.634 115.557C130.208 115.094 130.981 112.358 130.998 110.076C131.032 102.255 128.193 97.6588 122.306 95.9247C116.487 94.2067 111.441 96.8923 107.502 104.192C106.049 106.894 104.168 108.258 101.456 106.911C98.9201 105.64 99.2641 103.266 100.121 100.782C102.934 92.6409 110.424 87.2697 119.291 87.2697C131.434 87.2697 140.974 98.6187 138.707 110.438Z" fill="white"/>
  <path d="M124.095 42.1949C123.406 18.8161 104.227 0 80.7402 0C57.2525 0 38.0736 18.8161 37.3849 42.1949C16.2323 45.5123 0 63.8993 0 86.0152V145.107C0 169.564 19.8508 189.466 44.2451 189.466H117.235C141.629 189.466 161.48 169.564 161.48 145.107V86.0152C161.48 63.8993 145.248 45.5123 124.095 42.1949ZM80.7402 16.3408C95.057 16.3408 106.813 27.5384 107.762 41.6648H53.7173C54.6666 27.5468 66.4143 16.3408 80.7402 16.3408ZM145.181 145.115C145.181 160.564 132.644 173.133 117.235 173.133H44.2451C28.8361 173.133 16.2988 160.564 16.2988 145.115V86.0152C16.2988 70.567 28.8361 57.9972 44.2451 57.9972H117.235C132.644 57.9972 145.181 70.567 145.181 86.0152V145.115Z" fill="white"/>
</svg>
