<svg width="250" height="70" viewBox="0 0 250 70" fill="none" xmlns="http://www.w3.org/2000/svg">
  <path d="M119.097 48.0105C118.965 49.9461 119.215 51.4491 118.638 52.882C117.883 54.758 116.538 55.5204 114.483 55.1959C112.579 54.8958 111.744 53.7146 111.584 51.8681C111.245 47.8537 111.522 43.8313 111.38 39.8168C111.204 34.8752 106.359 31.2962 101.81 32.6694C98.4343 33.6884 96.0182 37.2162 96.3149 40.6872C96.6222 44.2882 99.421 47.0697 103.344 47.5752C104.655 47.743 105.962 47.8727 106.798 49.027C107.68 50.2463 108.022 51.6114 107.324 53.0522C106.674 54.393 105.572 55.05 104.089 55.1689C97.911 55.6662 93.7613 52.5089 90.7225 47.5644C89.8139 46.0885 89.6603 45.7938 88.5815 47.5158C85.0656 53.1332 79.9857 56.0988 73.2365 55.2148C66.7436 54.366 62.6425 50.4813 60.72 44.2909C60.2858 42.8879 60.0622 41.3658 60.0487 39.8981C59.9812 32.5694 60.0001 25.2408 60.0271 17.9121C60.0379 14.9196 61.6124 13.1514 64.0366 13.2597C65.711 13.3354 66.83 14.1653 67.3503 15.7603C67.7791 17.0714 67.8493 18.4284 67.8412 19.7962C67.8007 26.403 67.744 33.0128 67.7359 39.6195C67.7305 43.1419 69.8391 46.0561 73.0856 47.1646C77.006 48.5054 81.1019 46.5643 82.353 42.7715C83.7714 38.4705 81.7303 34.1453 77.6478 32.9044C76.5397 32.5667 75.364 32.4611 74.2477 32.1477C72.1472 31.5582 71.3491 30.1931 71.6296 27.8386C71.84 26.0788 73.1477 24.8218 75.0459 24.7459C80.5843 24.5297 84.7016 27.0844 87.8374 31.4799C88.3525 32.2017 88.8243 32.9587 89.2882 33.656C89.9891 33.502 90.0701 32.9776 90.2508 32.6099C93.7694 25.4974 102.622 23.3294 109.123 25.5596C112.472 26.7086 114.782 29.1362 116.673 31.9826C117.6 33.3802 118.091 33.5479 118.948 31.9313C123.195 23.9324 136.752 21.8157 142.959 29.3064C143.477 29.9308 144.078 30.4878 144.852 31.2962C145.103 29.5715 144.825 28.2142 145.378 26.9193C146.141 25.1325 147.495 24.6243 149.266 24.6918C151.016 24.7567 151.946 25.7246 152.4 27.3383C153.187 30.1499 152.683 33.0155 152.782 35.8538C152.847 37.6676 152.674 39.5007 152.874 41.2956C153.292 45.0343 156.457 47.6295 160.292 47.5725C164.175 47.5158 167.319 44.745 167.542 40.8874C167.742 37.4623 167.639 34.0183 167.688 30.5824C167.699 29.8065 167.72 29.0252 167.836 28.2604C168.222 25.7679 169.559 24.6135 171.851 24.727C173.857 24.8272 175.235 26.3274 175.286 28.674C175.354 31.6555 175.302 34.6399 175.302 37.6244C175.302 43.2662 175.302 48.9109 175.302 54.5526C175.3 62.9436 168.125 70.029 159.766 69.8964C157.547 69.8613 155.692 68.196 155.579 66.1336C155.468 64.1439 156.76 62.5975 159.148 62.3651C162.371 62.0515 165.067 61.0378 166.599 57.9615C166.911 57.3288 167.181 56.6558 167.34 55.9718C167.766 54.1255 167.359 53.7659 165.563 54.3173C159.496 56.1798 154.114 56.0528 147.88 49.4785C147.346 50.1596 147.524 50.9085 147.576 51.6762C148.26 61.7351 142.404 68.9044 132.678 69.9667C130.979 70.1533 129.628 69.5533 128.607 68.2339C127.69 67.05 127.666 65.7308 128.221 64.3792C128.774 63.0381 129.774 62.4246 131.228 62.3435C134.744 62.1487 137.656 60.946 139.061 57.3585C139.419 56.4394 139.646 55.5258 139.64 54.531C139.611 49.6676 139.411 44.7936 139.654 39.9413C139.832 36.389 136.857 33.1992 133.282 32.5097C129.577 31.7962 126.185 33.9048 124.818 37.7219C123.664 40.9387 125.174 44.6261 128.41 46.4886C129.548 47.1427 130.785 47.4807 132.082 47.6322C135.032 47.978 136.237 49.2432 135.911 51.6222C135.542 54.3254 133.544 55.5447 130.748 55.2743C125.794 54.7958 122.262 52.125 119.094 48.0132L119.097 48.0105Z" fill="#DC189B"/>
  <path d="M40.7667 35.2484C40.5186 39.2627 39.2325 42.8826 36.3581 45.7776C33.4003 48.754 29.6497 50.249 25.5322 50.249C17.7261 50.2571 10.7183 42.8691 11.0069 34.9888C11.0555 33.6453 11.5947 32.7802 12.9133 32.6397C14.4421 32.4801 15.0783 33.5507 15.1809 34.8456C15.4182 37.7652 16.3296 40.3631 18.4138 42.4744C21.4392 45.5345 25.0334 46.4401 29.0942 45.0965C33.2223 43.7287 35.5548 40.7443 36.3338 36.5C36.4364 35.9459 36.4742 35.3781 36.563 34.8186C36.7788 33.4994 37.3909 32.4801 38.8847 32.6505C40.3271 32.8153 40.8504 33.9076 40.7694 35.2457L40.7667 35.2484Z" fill="#DC189B"/>
  <path d="M44.86 35.4618C44.6899 36.3485 44.4339 37.2624 43.2312 37.1055C42.1311 36.9569 42.3793 36.0783 42.3847 35.3456C42.3955 32.8342 41.4839 31.3583 39.5938 30.8015C37.7252 30.2499 36.1048 31.1122 34.8401 33.4561C34.3737 34.3239 33.7697 34.7618 32.8988 34.3293C32.0845 33.9211 32.1949 33.1587 32.4701 32.3612C33.3733 29.7471 35.7784 28.0224 38.6257 28.0224C42.5248 28.0224 45.5879 31.6666 44.86 35.4618Z" fill="#DC189B"/>
  <path d="M39.847 13.5488C39.6258 6.04186 33.4675 0 25.9258 0C18.3838 0 12.2255 6.04186 12.0043 13.5488C5.2122 14.614 0 20.5181 0 27.6196V46.594C0 54.447 6.37412 60.8377 14.2072 60.8377H37.6441C45.4772 60.8377 51.8513 54.447 51.8513 46.594V27.6196C51.8513 20.5181 46.6393 14.614 39.847 13.5488ZM25.9258 5.24706C30.5229 5.24706 34.2978 8.84261 34.6026 13.3786H17.2487C17.5535 8.84531 21.3257 5.24706 25.9258 5.24706ZM46.6177 46.5967C46.6177 51.5574 42.592 55.5933 37.6441 55.5933H14.2072C9.25929 55.5933 5.23355 51.5574 5.23355 46.5967V27.6196C5.23355 22.6591 9.25929 18.623 14.2072 18.623H37.6441C42.592 18.623 46.6177 22.6591 46.6177 27.6196V46.5967Z" fill="#DC189B"/>
  </svg>
