<svg width="254" height="53" viewBox="0 0 254 53" fill="none" xmlns="http://www.w3.org/2000/svg">
  <path d="M13.6305 53C9.87243 53 6.66119 51.6452 3.99674 48.9357C1.33225 46.2262 0 42.9713 0 39.1708C0 35.8734 0.987121 32.9667 2.96136 30.4508C4.9356 27.9349 7.53422 26.3346 10.7572 25.6498V30.8473C9.01541 31.4417 7.60624 32.4984 6.52968 34.0175C5.45308 35.5366 4.91478 37.2535 4.91478 39.168C4.91478 41.5778 5.76152 43.6532 7.455 45.3943C9.14852 47.1354 11.2007 48.0059 13.6115 48.0059C16.0363 48.0059 18.0949 47.1446 19.7873 45.422C21.4797 43.6994 22.3259 41.612 22.3259 39.1598V36.6435H38.2938C38.6914 36.2366 39.1363 35.9088 39.6285 35.6601C40.1208 35.4114 40.647 35.2871 41.2073 35.2871C42.2876 35.2871 43.1929 35.6581 43.9231 36.4001C44.6532 37.1421 45.0183 38.056 45.0183 39.1417C45.0183 40.2115 44.6532 41.1274 43.9231 41.8894C43.1929 42.6514 42.2876 43.0324 41.2073 43.0324C40.647 43.0324 40.1208 42.908 39.6285 42.6593C39.1363 42.4107 38.6914 42.0829 38.2938 41.676H27.0623C26.3558 44.9405 24.7649 47.644 22.2897 49.7863C19.8145 51.9288 16.9281 53 13.6305 53ZM41.2073 53C38.9025 53 36.7346 52.4463 34.7033 51.3389C32.6719 50.2315 31.0317 48.6683 29.7827 46.6495H36.6184C37.2675 47.1016 37.9943 47.4407 38.799 47.6668C39.6036 47.8928 40.4064 48.0059 41.2073 48.0059C43.6345 48.0059 45.6922 47.1455 47.3805 45.4246C49.0687 43.7038 49.9128 41.6185 49.9128 39.1688C49.9128 36.7048 49.0687 34.613 47.3805 32.8933C45.6922 31.1735 43.6345 30.3137 41.2073 30.3137C40.2716 30.3137 39.4089 30.4463 38.6192 30.7117C37.8296 30.9771 37.0993 31.3411 36.4282 31.8037L28.118 17.6519C27.1797 17.437 26.4151 16.9886 25.8241 16.3068C25.2331 15.625 24.9376 14.8001 24.9376 13.8322C24.9376 12.7697 25.3125 11.8599 26.0624 11.103C26.8122 10.3461 27.7094 9.96765 28.7538 9.96765C29.8279 9.96765 30.7307 10.3433 31.4623 11.0945C32.1939 11.8458 32.5597 12.7624 32.5597 13.8442C32.5597 14.0375 32.5502 14.2068 32.5312 14.3523C32.5122 14.4978 32.4623 14.7137 32.3818 15.0001L38.4853 25.5682C38.9051 25.4863 39.3787 25.4244 39.9061 25.3825C40.4335 25.3405 40.8672 25.3195 41.2073 25.3195C44.98 25.3195 48.1932 26.6594 50.8469 29.3391C53.5007 32.0188 54.8276 35.2953 54.8276 39.1686C54.8276 42.9606 53.5007 46.2139 50.8469 48.9283C48.1932 51.6428 44.98 53 41.2073 53ZM13.6381 43.0324C12.5853 43.0324 11.684 42.6531 10.9341 41.8947C10.1842 41.1362 9.80927 40.2246 9.80927 39.1598C9.80927 38.2232 10.1048 37.4124 10.6957 36.7274C11.2868 36.0424 12.0292 35.5826 12.9229 35.3481L19.5633 24.0565C18.1511 22.7414 17.0588 21.1824 16.2866 19.3796C15.5144 17.5768 15.1283 15.7298 15.1283 13.8386C15.1283 9.99769 16.4638 6.73103 19.1347 4.03862C21.8057 1.34621 25.0144 0 28.7608 0C32.4479 0 35.608 1.30309 38.2412 3.90928C40.8744 6.51542 42.2503 9.67503 42.369 13.3881H37.4542C37.3652 11.0206 36.4817 9.02976 34.8036 7.41551C33.1255 5.80126 31.1111 4.99413 28.7605 4.99413C26.3505 4.99413 24.2951 5.85188 22.5943 7.56736C20.8935 9.28285 20.0431 11.3711 20.0431 13.8322C20.0431 15.8438 20.6328 17.6168 21.8122 19.1512C22.9917 20.6856 24.4877 21.7359 26.3005 22.3021L17.1867 37.9298C17.2757 38.1827 17.3387 38.4035 17.3758 38.592C17.4129 38.7806 17.4315 38.9683 17.4315 39.155C17.4315 40.223 17.0664 41.1362 16.3361 41.8947C15.6059 42.6531 14.7066 43.0324 13.6381 43.0324Z" fill="#5E7897"/>
  <mask id="path-2-outside-1_38_495" maskUnits="userSpaceOnUse" x="68.4482" y="4.48279" width="185" height="44" fill="black">
  <rect fill="white" x="68.4482" y="4.48279" width="185" height="44"/>
  <path d="M70.8291 25.5857V7.09717H77.7607C79.5972 7.09717 81.1603 7.45592 82.4501 8.17343C83.7485 8.89093 84.7393 9.93302 85.4227 11.2997C86.1145 12.6664 86.4605 14.3149 86.4605 16.2453V16.271C86.4605 18.2441 86.1188 19.9268 85.4355 21.3191C84.7521 22.7029 83.7613 23.762 82.463 24.4966C81.1732 25.2227 79.6057 25.5857 77.7607 25.5857H70.8291ZM74.1348 22.8054H77.3251C78.5466 22.8054 79.5887 22.5534 80.4514 22.0494C81.3141 21.5455 81.9675 20.8109 82.4117 19.8457C82.8644 18.8805 83.0908 17.706 83.0908 16.3222V16.2966C83.0908 14.947 82.8601 13.7939 82.3989 12.8372C81.9462 11.872 81.2885 11.1374 80.4258 10.6334C79.563 10.1295 78.5295 9.8775 77.3251 9.8775H74.1348V22.8054Z"/>
  <path d="M95.3913 25.8676C93.999 25.8676 92.8032 25.5729 91.8038 24.9835C90.813 24.3941 90.0485 23.557 89.5104 22.4722C88.9722 21.3875 88.7032 20.1019 88.7032 18.6157V18.6029C88.7032 17.1337 88.968 15.8524 89.4976 14.7591C90.0357 13.6657 90.7959 12.8201 91.7782 12.2222C92.7605 11.6157 93.9136 11.3125 95.2376 11.3125C96.5701 11.3125 97.7147 11.6072 98.6714 12.1966C99.6366 12.7774 100.38 13.5931 100.901 14.6438C101.422 15.6944 101.682 16.9244 101.682 18.3338V19.3844H90.3048V17.2447H100.119L98.6073 19.2435V17.975C98.6073 17.044 98.4664 16.271 98.1845 15.656C97.9026 15.041 97.5097 14.5797 97.0057 14.2722C96.5103 13.9647 95.9337 13.811 95.276 13.811C94.6183 13.811 94.0332 13.9732 93.5207 14.2978C93.0167 14.6139 92.6153 15.0837 92.3163 15.7072C92.0259 16.3222 91.8807 17.0782 91.8807 17.975V19.2563C91.8807 20.119 92.0259 20.8579 92.3163 21.4729C92.6067 22.0793 93.0167 22.5491 93.5463 22.8823C94.0845 23.2068 94.7208 23.3691 95.4554 23.3691C96.0277 23.3691 96.5188 23.288 96.9288 23.1257C97.3474 22.9549 97.6848 22.7541 97.941 22.5235C98.1973 22.2843 98.3767 22.058 98.4792 21.8444L98.5176 21.7547H101.541L101.516 21.8701C101.405 22.3228 101.2 22.784 100.901 23.2538C100.61 23.7151 100.213 24.1464 99.7092 24.5479C99.2138 24.9408 98.6073 25.2611 97.8898 25.5088C97.1723 25.748 96.3395 25.8676 95.3913 25.8676Z"/>
  <path d="M109.639 25.8676C108.452 25.8676 107.427 25.701 106.564 25.3679C105.71 25.0262 105.035 24.5564 104.54 23.9585C104.045 23.352 103.75 22.6516 103.656 21.8572V21.8316H106.821L106.833 21.8572C107.004 22.3441 107.325 22.7413 107.794 23.0488C108.264 23.3563 108.896 23.5101 109.691 23.5101C110.22 23.5101 110.686 23.4375 111.087 23.2923C111.489 23.1385 111.805 22.9292 112.035 22.6644C112.266 22.3996 112.381 22.0921 112.381 21.7419V21.7163C112.381 21.3063 112.215 20.9646 111.882 20.6913C111.548 20.4094 110.998 20.1831 110.229 20.0122L107.961 19.4997C107.073 19.3033 106.338 19.0299 105.757 18.6797C105.176 18.3295 104.741 17.8982 104.45 17.3857C104.168 16.8732 104.028 16.2752 104.028 15.5919V15.5791C104.028 14.7335 104.262 13.9903 104.732 13.3497C105.211 12.7091 105.873 12.2094 106.718 11.8506C107.564 11.4919 108.538 11.3125 109.639 11.3125C110.775 11.3125 111.753 11.4833 112.574 11.825C113.394 12.1667 114.034 12.6365 114.495 13.2344C114.957 13.8323 115.221 14.5114 115.29 15.2716V15.2972H112.292L112.279 15.2588C112.159 14.8146 111.873 14.4388 111.42 14.1313C110.976 13.8152 110.378 13.6572 109.627 13.6572C109.157 13.6572 108.734 13.7298 108.358 13.875C107.991 14.0202 107.7 14.2252 107.487 14.49C107.282 14.7463 107.179 15.0495 107.179 15.3997V15.4125C107.179 15.6859 107.248 15.925 107.384 16.13C107.53 16.335 107.756 16.5144 108.063 16.6682C108.371 16.8219 108.777 16.9586 109.281 17.0782L111.548 17.5778C112.924 17.8853 113.94 18.3423 114.598 18.9488C115.256 19.5553 115.584 20.371 115.584 21.396V21.4216C115.584 22.31 115.328 23.0873 114.816 23.7535C114.303 24.4198 113.599 24.9408 112.702 25.3166C111.805 25.6839 110.784 25.8676 109.639 25.8676Z"/>
  <path d="M118.314 25.5857V11.5816H121.492V25.5857H118.314ZM119.916 9.23687C119.395 9.23687 118.946 9.05322 118.57 8.68593C118.194 8.31864 118.007 7.87874 118.007 7.36624C118.007 6.83665 118.194 6.39248 118.57 6.03373C118.946 5.66643 119.395 5.48279 119.916 5.48279C120.437 5.48279 120.881 5.66643 121.248 6.03373C121.624 6.39248 121.812 6.83665 121.812 7.36624C121.812 7.87874 121.624 8.31864 121.248 8.68593C120.881 9.05322 120.437 9.23687 119.916 9.23687Z"/>
  <path d="M130.922 30.5057C129.692 30.5057 128.629 30.3434 127.732 30.0188C126.843 29.6943 126.143 29.233 125.631 28.6351C125.118 28.0457 124.806 27.3581 124.695 26.5723L124.708 26.5338H127.886L127.911 26.5723C128.014 27.0164 128.325 27.3795 128.846 27.6613C129.376 27.9518 130.085 28.097 130.973 28.097C132.067 28.097 132.912 27.8535 133.51 27.3666C134.117 26.8798 134.42 26.1879 134.42 25.291V22.6004H134.202C133.937 23.1043 133.591 23.5314 133.164 23.8816C132.746 24.2318 132.263 24.4966 131.716 24.676C131.178 24.8468 130.585 24.9323 129.936 24.9323C128.757 24.9323 127.736 24.6504 126.873 24.0866C126.011 23.5143 125.344 22.7242 124.875 21.7163C124.413 20.7084 124.183 19.5424 124.183 18.2185V18.1929C124.183 16.8433 124.418 15.656 124.887 14.631C125.357 13.606 126.023 12.803 126.886 12.2222C127.757 11.6414 128.795 11.3509 130 11.3509C130.649 11.3509 131.242 11.4534 131.781 11.6584C132.327 11.8634 132.806 12.1539 133.216 12.5297C133.634 12.9055 133.976 13.3582 134.241 13.8878H134.407V11.5816H137.597V25.2398C137.597 26.316 137.324 27.2471 136.777 28.0329C136.239 28.8273 135.471 29.438 134.471 29.8651C133.472 30.2922 132.289 30.5057 130.922 30.5057ZM130.922 22.3954C131.657 22.3954 132.289 22.2203 132.818 21.8701C133.348 21.5113 133.754 21.0202 134.036 20.3966C134.326 19.7731 134.471 19.047 134.471 18.2185V18.1929C134.471 17.3643 134.326 16.6383 134.036 16.0147C133.754 15.3826 133.348 14.8915 132.818 14.5413C132.289 14.1825 131.657 14.0031 130.922 14.0031C130.179 14.0031 129.547 14.1825 129.026 14.5413C128.513 14.8915 128.12 15.3826 127.847 16.0147C127.582 16.6383 127.45 17.3643 127.45 18.1929V18.2185C127.45 19.0385 127.582 19.7645 127.847 20.3966C128.12 21.0202 128.513 21.5113 129.026 21.8701C129.547 22.2203 130.179 22.3954 130.922 22.3954Z"/>
  <path d="M140.98 25.5857V11.5816H144.171V13.7341H144.389C144.722 12.9739 145.226 12.3802 145.901 11.9531C146.575 11.526 147.417 11.3125 148.425 11.3125C149.988 11.3125 151.184 11.7652 152.012 12.6706C152.841 13.5761 153.255 14.8616 153.255 16.5272V25.5857H150.065V17.2703C150.065 16.177 149.834 15.357 149.373 14.8103C148.92 14.2637 148.211 13.9903 147.246 13.9903C146.614 13.9903 146.067 14.1313 145.606 14.4131C145.145 14.695 144.79 15.0922 144.542 15.6047C144.295 16.1172 144.171 16.7237 144.171 17.4241V25.5857H140.98Z"/>
  <path d="M169.72 26.047C168.285 26.047 167.038 25.8249 165.979 25.3807C164.928 24.9365 164.1 24.3173 163.493 23.5229C162.887 22.7285 162.545 21.8017 162.468 20.7426L162.455 20.5632H165.659L165.671 20.6913C165.723 21.2123 165.928 21.6651 166.286 22.0494C166.654 22.4338 167.141 22.737 167.747 22.9591C168.353 23.1727 169.045 23.2794 169.823 23.2794C170.566 23.2794 171.223 23.1641 171.796 22.9335C172.368 22.7029 172.816 22.3868 173.141 21.9854C173.466 21.5754 173.628 21.1056 173.628 20.576V20.5632C173.628 19.8969 173.367 19.3545 172.846 18.936C172.325 18.5089 171.467 18.1672 170.271 17.911L168.285 17.501C166.389 17.0995 165.009 16.4589 164.147 15.5791C163.292 14.6908 162.865 13.559 162.865 12.1838V12.1709C162.865 11.0691 163.156 10.1039 163.737 9.27531C164.326 8.44676 165.133 7.80186 166.158 7.34061C167.192 6.87082 168.375 6.63592 169.707 6.63592C171.074 6.63592 172.257 6.86655 173.256 7.3278C174.256 7.78051 175.042 8.39978 175.614 9.18562C176.186 9.97146 176.506 10.8598 176.575 11.8506L176.588 12.0172H173.436L173.41 11.8634C173.333 11.3766 173.133 10.9538 172.808 10.595C172.492 10.2277 172.069 9.93729 171.539 9.72375C171.01 9.5102 170.391 9.40343 169.682 9.40343C169.007 9.40343 168.405 9.5102 167.875 9.72375C167.346 9.92875 166.927 10.2192 166.619 10.595C166.321 10.9708 166.171 11.4235 166.171 11.9531V11.9659C166.171 12.6151 166.423 13.1532 166.927 13.5803C167.439 14.0074 168.272 14.3405 169.425 14.5797L171.411 15.0025C172.71 15.2759 173.765 15.6389 174.576 16.0916C175.388 16.5443 175.981 17.1081 176.357 17.7829C176.741 18.4491 176.934 19.252 176.934 20.1916V20.2044C176.934 21.4003 176.639 22.4338 176.05 23.3051C175.469 24.1763 174.636 24.8511 173.551 25.3294C172.475 25.8078 171.198 26.047 169.72 26.047Z"/>
  <path d="M181.29 30.5057C181.094 30.5057 180.889 30.5015 180.675 30.4929C180.47 30.4844 180.27 30.4716 180.073 30.4545V28.0073C180.201 28.0244 180.351 28.0329 180.522 28.0329C180.692 28.0414 180.859 28.0457 181.021 28.0457C181.679 28.0457 182.204 27.9005 182.597 27.6101C182.999 27.3282 183.285 26.8712 183.456 26.2391L183.622 25.5985L178.613 11.5816H182.098L185.788 23.9841L184.916 22.5235H186.018L185.173 23.9841L188.863 11.5816H192.219L187.197 25.8932C186.787 27.0549 186.321 27.9731 185.8 28.6479C185.288 29.3227 184.664 29.801 183.93 30.0829C183.204 30.3648 182.324 30.5057 181.29 30.5057Z"/>
  <path d="M199.318 25.8676C198.131 25.8676 197.106 25.701 196.243 25.3679C195.389 25.0262 194.714 24.5564 194.219 23.9585C193.723 23.352 193.429 22.6516 193.335 21.8572V21.8316H196.499L196.512 21.8572C196.683 22.3441 197.003 22.7413 197.473 23.0488C197.943 23.3563 198.575 23.5101 199.369 23.5101C199.899 23.5101 200.365 23.4375 200.766 23.2923C201.167 23.1385 201.483 22.9292 201.714 22.6644C201.945 22.3996 202.06 22.0921 202.06 21.7419V21.7163C202.06 21.3063 201.893 20.9646 201.56 20.6913C201.227 20.4094 200.676 20.1831 199.908 20.0122L197.64 19.4997C196.751 19.3033 196.017 19.0299 195.436 18.6797C194.855 18.3295 194.419 17.8982 194.129 17.3857C193.847 16.8732 193.706 16.2752 193.706 15.5919V15.5791C193.706 14.7335 193.941 13.9903 194.411 13.3497C194.889 12.7091 195.551 12.2094 196.397 11.8506C197.243 11.4919 198.216 11.3125 199.318 11.3125C200.454 11.3125 201.432 11.4833 202.252 11.825C203.072 12.1667 203.713 12.6365 204.174 13.2344C204.635 13.8323 204.9 14.5114 204.968 15.2716V15.2972H201.97L201.958 15.2588C201.838 14.8146 201.552 14.4388 201.099 14.1313C200.655 13.8152 200.057 13.6572 199.305 13.6572C198.836 13.6572 198.413 13.7298 198.037 13.875C197.67 14.0202 197.379 14.2252 197.166 14.49C196.961 14.7463 196.858 15.0495 196.858 15.3997V15.4125C196.858 15.6859 196.926 15.925 197.063 16.13C197.208 16.335 197.435 16.5144 197.742 16.6682C198.05 16.8219 198.455 16.9586 198.959 17.0782L201.227 17.5778C202.602 17.8853 203.619 18.3423 204.277 18.9488C204.934 19.5553 205.263 20.371 205.263 21.396V21.4216C205.263 22.31 205.007 23.0873 204.494 23.7535C203.982 24.4198 203.277 24.9408 202.38 25.3166C201.483 25.6839 200.463 25.8676 199.318 25.8676Z"/>
  <path d="M213.387 25.6498C211.781 25.6498 210.624 25.3551 209.915 24.7657C209.206 24.1763 208.851 23.2111 208.851 21.8701V14.0544H206.673V11.5816H208.851V8.1478H212.093V11.5816H215.04V14.0544H212.093V21.1141C212.093 21.806 212.238 22.3142 212.528 22.6388C212.827 22.9549 213.306 23.1129 213.963 23.1129C214.194 23.1129 214.382 23.1086 214.527 23.1001C214.681 23.083 214.852 23.0659 215.04 23.0488V25.5088C214.818 25.5515 214.561 25.5857 214.271 25.6113C213.989 25.637 213.694 25.6498 213.387 25.6498Z"/>
  <path d="M223.573 25.8676C222.181 25.8676 220.985 25.5729 219.986 24.9835C218.995 24.3941 218.231 23.557 217.692 22.4722C217.154 21.3875 216.885 20.1019 216.885 18.6157V18.6029C216.885 17.1337 217.15 15.8524 217.68 14.7591C218.218 13.6657 218.978 12.8201 219.96 12.2222C220.943 11.6157 222.096 11.3125 223.42 11.3125C224.752 11.3125 225.897 11.6072 226.853 12.1966C227.819 12.7774 228.562 13.5931 229.083 14.6438C229.604 15.6944 229.864 16.9244 229.864 18.3338V19.3844H218.487V17.2447H228.301L226.789 19.2435V17.975C226.789 17.044 226.648 16.271 226.366 15.656C226.085 15.041 225.692 14.5797 225.188 14.2722C224.692 13.9647 224.116 13.811 223.458 13.811C222.8 13.811 222.215 13.9732 221.703 14.2978C221.199 14.6139 220.797 15.0837 220.498 15.7072C220.208 16.3222 220.063 17.0782 220.063 17.975V19.2563C220.063 20.119 220.208 20.8579 220.498 21.4729C220.789 22.0793 221.199 22.5491 221.728 22.8823C222.266 23.2068 222.903 23.3691 223.637 23.3691C224.21 23.3691 224.701 23.288 225.111 23.1257C225.529 22.9549 225.867 22.7541 226.123 22.5235C226.379 22.2843 226.559 22.058 226.661 21.8444L226.7 21.7547H229.723L229.698 21.8701C229.587 22.3228 229.382 22.784 229.083 23.2538C228.792 23.7151 228.395 24.1464 227.891 24.5479C227.396 24.9408 226.789 25.2611 226.072 25.5088C225.354 25.748 224.521 25.8676 223.573 25.8676Z"/>
  <path d="M232.53 25.5857V11.5816H235.72V13.7597H235.938C236.237 12.9824 236.72 12.3802 237.386 11.9531C238.061 11.526 238.859 11.3125 239.782 11.3125C240.414 11.3125 240.982 11.415 241.486 11.62C241.998 11.825 242.438 12.1154 242.806 12.4913C243.173 12.8671 243.455 13.3155 243.651 13.8366H243.882C244.112 13.3326 244.433 12.8927 244.843 12.5169C245.261 12.1325 245.748 11.8378 246.303 11.6328C246.867 11.4193 247.474 11.3125 248.123 11.3125C249.062 11.3125 249.865 11.5004 250.532 11.8763C251.206 12.2436 251.723 12.7731 252.082 13.465C252.449 14.1569 252.633 14.9854 252.633 15.9507V25.5857H249.442V16.7322C249.442 16.1172 249.348 15.609 249.161 15.2075C248.981 14.8061 248.704 14.5028 248.328 14.2978C247.952 14.0928 247.478 13.9903 246.906 13.9903C246.35 13.9903 245.868 14.1185 245.458 14.3747C245.048 14.6224 244.727 14.9598 244.497 15.3869C244.275 15.814 244.164 16.2966 244.164 16.8347V25.5857H240.973V16.5016C240.973 15.9805 240.871 15.5321 240.666 15.1563C240.469 14.7804 240.179 14.4943 239.795 14.2978C239.419 14.0928 238.97 13.9903 238.449 13.9903C237.928 13.9903 237.458 14.127 237.04 14.4003C236.63 14.6651 236.305 15.0324 236.066 15.5022C235.835 15.9635 235.72 16.4845 235.72 17.0653V25.5857H232.53Z"/>
  <path d="M74.5468 47.7936C73.4958 47.7936 72.5884 47.5577 71.8245 47.0861C71.0657 46.6144 70.4787 45.9454 70.0634 45.079C69.6533 44.2074 69.4482 43.1744 69.4482 41.9799V41.9645C69.4482 40.7649 69.6533 39.7318 70.0634 38.8654C70.4787 37.9939 71.0657 37.3223 71.8245 36.8506C72.5832 36.379 73.4881 36.1431 74.5391 36.1431C75.3798 36.1431 76.1386 36.3098 76.8153 36.643C77.492 36.9711 78.0432 37.4274 78.4687 38.0118C78.8942 38.5911 79.1505 39.2576 79.2377 40.0112L79.23 40.0728H77.2921L77.2844 40.0343C77.1921 39.5985 77.0178 39.2192 76.7615 38.8962C76.5052 38.5681 76.1873 38.3143 75.8079 38.1349C75.4285 37.9503 75.0056 37.858 74.5391 37.858C73.9136 37.858 73.3702 38.0246 72.9088 38.3579C72.4474 38.6911 72.0911 39.1653 71.8399 39.7805C71.5938 40.3906 71.4707 41.116 71.4707 41.9568V41.9722C71.4707 42.813 71.5938 43.541 71.8399 44.1562C72.0911 44.7714 72.4474 45.2456 72.9088 45.5788C73.3702 45.9121 73.9162 46.0787 74.5468 46.0787C75.0184 46.0787 75.4414 45.9967 75.8156 45.8326C76.195 45.6686 76.5103 45.4379 76.7615 45.1405C77.0178 44.838 77.1921 44.4843 77.2844 44.0793L77.2998 44.0331H79.2377V44.0947C79.1403 44.8329 78.8814 45.4789 78.461 46.0326C78.0406 46.5862 77.4972 47.0194 76.8307 47.3322C76.1642 47.6398 75.4029 47.7936 74.5468 47.7936Z"/>
  <path d="M89.3855 47.7936C88.2986 47.7936 87.363 47.5577 86.5786 47.0861C85.7994 46.6093 85.197 45.9351 84.7715 45.0636C84.3459 44.1921 84.1332 43.1616 84.1332 41.9722V41.9568C84.1332 40.7623 84.3459 39.7318 84.7715 38.8654C85.2021 37.9939 85.8096 37.3223 86.594 36.8506C87.3835 36.379 88.314 36.1431 89.3855 36.1431C90.4621 36.1431 91.3926 36.379 92.177 36.8506C92.9614 37.3223 93.5663 37.9939 93.9918 38.8654C94.4174 39.737 94.6301 40.7674 94.6301 41.9568V41.9722C94.6301 43.1616 94.4174 44.1921 93.9918 45.0636C93.5714 45.9351 92.9691 46.6093 92.1847 47.0861C91.4003 47.5577 90.4672 47.7936 89.3855 47.7936ZM89.3855 46.0787C90.0468 46.0787 90.6185 45.9095 91.1004 45.5712C91.5823 45.2328 91.954 44.756 92.2154 44.1408C92.482 43.5256 92.6153 42.8027 92.6153 41.9722V41.9568C92.6153 41.1212 92.482 40.3983 92.2154 39.7882C91.954 39.173 91.5823 38.6988 91.1004 38.3656C90.6185 38.0272 90.0468 37.858 89.3855 37.858C88.7293 37.858 88.1576 38.0272 87.6706 38.3656C87.1887 38.6988 86.8145 39.173 86.5479 39.7882C86.2864 40.3983 86.1557 41.1212 86.1557 41.9568V41.9722C86.1557 42.8027 86.2838 43.5256 86.5402 44.1408C86.8016 44.756 87.1733 45.2328 87.6552 45.5712C88.1423 45.9095 88.719 46.0787 89.3855 46.0787Z"/>
  <path d="M100.056 47.5167V36.42H102.332L105.67 44.9636H105.801L109.13 36.42H111.407V47.5167H109.623V39.6267H108.654L110.622 36.7276L106.408 47.5167H105.055L100.848 36.7276L102.817 39.6267H101.84V47.5167H100.056Z"/>
  <path d="M117.294 47.5167V36.42H119.571L122.908 44.9636H123.039L126.369 36.42H128.645V47.5167H126.861V39.6267H125.892L127.86 36.7276L123.646 47.5167H122.293L118.086 36.7276L120.055 39.6267H119.078V47.5167H117.294Z"/>
  <path d="M134.532 47.5167V36.42H141.715V38.0887H136.516V41.0955H141.43V42.672H136.516V45.848H141.715V47.5167H134.532Z"/>
  <path d="M147.325 47.5167V36.42H151.809C152.603 36.42 153.285 36.561 153.854 36.8429C154.423 37.1249 154.859 37.5222 155.162 38.0349C155.464 38.5476 155.615 39.1576 155.615 39.8651V39.8805C155.615 40.6136 155.431 41.2647 155.062 41.8338C154.698 42.3977 154.188 42.7976 153.531 43.0334L155.954 47.5167H153.693L151.509 43.341C151.499 43.341 151.483 43.341 151.463 43.341C151.442 43.341 151.424 43.341 151.409 43.341H149.31V47.5167H147.325ZM149.31 41.8184H151.601C152.232 41.8184 152.721 41.6518 153.07 41.3185C153.419 40.9853 153.593 40.5213 153.593 39.9266V39.9113C153.593 39.3319 153.411 38.8731 153.047 38.5347C152.688 38.1913 152.193 38.0195 151.563 38.0195H149.31V41.8184Z"/>
  <path d="M165.809 47.7936C164.758 47.7936 163.851 47.5577 163.087 47.0861C162.328 46.6144 161.741 45.9454 161.326 45.079C160.916 44.2074 160.711 43.1744 160.711 41.9799V41.9645C160.711 40.7649 160.916 39.7318 161.326 38.8654C161.741 37.9939 162.328 37.3223 163.087 36.8506C163.846 36.379 164.751 36.1431 165.802 36.1431C166.642 36.1431 167.401 36.3098 168.078 36.643C168.755 36.9711 169.306 37.4274 169.731 38.0118C170.157 38.5911 170.413 39.2576 170.5 40.0112L170.493 40.0728H168.555L168.547 40.0343C168.455 39.5985 168.28 39.2192 168.024 38.8962C167.768 38.5681 167.45 38.3143 167.07 38.1349C166.691 37.9503 166.268 37.858 165.802 37.858C165.176 37.858 164.633 38.0246 164.171 38.3579C163.71 38.6911 163.354 39.1653 163.102 39.7805C162.856 40.3906 162.733 41.116 162.733 41.9568V41.9722C162.733 42.813 162.856 43.541 163.102 44.1562C163.354 44.7714 163.71 45.2456 164.171 45.5788C164.633 45.9121 165.179 46.0787 165.809 46.0787C166.281 46.0787 166.704 45.9967 167.078 45.8326C167.458 45.6686 167.773 45.4379 168.024 45.1405C168.28 44.838 168.455 44.4843 168.547 44.0793L168.562 44.0331H170.5V44.0947C170.403 44.8329 170.144 45.4789 169.724 46.0326C169.303 46.5862 168.76 47.0194 168.093 47.3322C167.427 47.6398 166.665 47.7936 165.809 47.7936Z"/>
  <path d="M175.865 47.5167V36.42H183.047V38.0887H177.849V41.0955H182.763V42.672H177.849V45.848H183.047V47.5167H175.865Z"/>
  <path d="M199.859 47.7936C198.998 47.7936 198.25 47.6603 197.614 47.3937C196.983 47.1271 196.486 46.7554 196.122 46.2786C195.758 45.8019 195.553 45.2456 195.507 44.6099L195.499 44.5022H197.422L197.429 44.5791C197.46 44.8919 197.583 45.1636 197.798 45.3943C198.019 45.625 198.311 45.807 198.675 45.9403C199.039 46.0684 199.454 46.1325 199.921 46.1325C200.367 46.1325 200.762 46.0633 201.105 45.9249C201.449 45.7865 201.718 45.5968 201.913 45.3558C202.107 45.1097 202.205 44.8278 202.205 44.5099V44.5022C202.205 44.1023 202.048 43.7768 201.736 43.5256C201.423 43.2693 200.908 43.0642 200.19 42.9104L198.998 42.6643C197.86 42.4234 197.032 42.0388 196.514 41.5108C196.002 40.9776 195.745 40.2983 195.745 39.4729V39.4652C195.745 38.8039 195.919 38.2246 196.268 37.7273C196.622 37.23 197.106 36.8429 197.722 36.5661C198.342 36.2841 199.052 36.1431 199.852 36.1431C200.672 36.1431 201.382 36.2816 201.982 36.5584C202.582 36.8301 203.053 37.2018 203.397 37.6735C203.74 38.1451 203.933 38.6783 203.974 39.273L203.981 39.373H202.089L202.074 39.2807C202.028 38.9885 201.907 38.7347 201.713 38.5194C201.523 38.2989 201.269 38.1246 200.951 37.9964C200.634 37.8683 200.262 37.8042 199.836 37.8042C199.431 37.8042 199.07 37.8683 198.752 37.9964C198.434 38.1195 198.183 38.2938 197.998 38.5194C197.819 38.7449 197.729 39.0167 197.729 39.3345V39.3422C197.729 39.7318 197.88 40.0548 198.183 40.3111C198.491 40.5675 198.99 40.7674 199.682 40.911L200.874 41.1647C201.654 41.3288 202.287 41.5467 202.774 41.8184C203.261 42.0901 203.617 42.4285 203.843 42.8335C204.074 43.2334 204.189 43.7153 204.189 44.2792V44.2869C204.189 45.0046 204.012 45.625 203.658 46.1479C203.31 46.6708 202.81 47.0758 202.159 47.3629C201.513 47.65 200.746 47.7936 199.859 47.7936Z"/>
  <path d="M214.121 47.7936C213.188 47.7936 212.381 47.6218 211.699 47.2783C211.017 46.9349 210.489 46.4555 210.115 45.8403C209.746 45.2251 209.561 44.5099 209.561 43.6948V36.42H211.537V43.5333C211.537 44.0408 211.637 44.4869 211.837 44.8714C212.042 45.2507 212.337 45.5481 212.722 45.7634C213.106 45.9736 213.575 46.0787 214.129 46.0787C214.678 46.0787 215.144 45.9736 215.529 45.7634C215.913 45.5481 216.205 45.2507 216.405 44.8714C216.605 44.4869 216.705 44.0408 216.705 43.5333V36.42H218.682V43.6948C218.682 44.5099 218.497 45.2251 218.128 45.8403C217.759 46.4555 217.233 46.9349 216.551 47.2783C215.875 47.6218 215.065 47.7936 214.121 47.7936Z"/>
  <path d="M224.561 47.5167V36.42H226.545V47.5167H224.561Z"/>
  <path d="M235.194 47.5167V38.0887H231.779V36.42H240.592V38.0887H237.178V47.5167H235.194Z"/>
  <path d="M245.826 47.5167V36.42H253.008V38.0887H247.81V41.0955H252.724V42.672H247.81V45.848H253.008V47.5167H245.826Z"/>
  </mask>
  <path d="M70.8291 25.5857V7.09717H77.7607C79.5972 7.09717 81.1603 7.45592 82.4501 8.17343C83.7485 8.89093 84.7393 9.93302 85.4227 11.2997C86.1145 12.6664 86.4605 14.3149 86.4605 16.2453V16.271C86.4605 18.2441 86.1188 19.9268 85.4355 21.3191C84.7521 22.7029 83.7613 23.762 82.463 24.4966C81.1732 25.2227 79.6057 25.5857 77.7607 25.5857H70.8291ZM74.1348 22.8054H77.3251C78.5466 22.8054 79.5887 22.5534 80.4514 22.0494C81.3141 21.5455 81.9675 20.8109 82.4117 19.8457C82.8644 18.8805 83.0908 17.706 83.0908 16.3222V16.2966C83.0908 14.947 82.8601 13.7939 82.3989 12.8372C81.9462 11.872 81.2885 11.1374 80.4258 10.6334C79.563 10.1295 78.5295 9.8775 77.3251 9.8775H74.1348V22.8054Z" fill="#5E7897"/>
  <path d="M95.3913 25.8676C93.999 25.8676 92.8032 25.5729 91.8038 24.9835C90.813 24.3941 90.0485 23.557 89.5104 22.4722C88.9722 21.3875 88.7032 20.1019 88.7032 18.6157V18.6029C88.7032 17.1337 88.968 15.8524 89.4976 14.7591C90.0357 13.6657 90.7959 12.8201 91.7782 12.2222C92.7605 11.6157 93.9136 11.3125 95.2376 11.3125C96.5701 11.3125 97.7147 11.6072 98.6714 12.1966C99.6366 12.7774 100.38 13.5931 100.901 14.6438C101.422 15.6944 101.682 16.9244 101.682 18.3338V19.3844H90.3048V17.2447H100.119L98.6073 19.2435V17.975C98.6073 17.044 98.4664 16.271 98.1845 15.656C97.9026 15.041 97.5097 14.5797 97.0057 14.2722C96.5103 13.9647 95.9337 13.811 95.276 13.811C94.6183 13.811 94.0332 13.9732 93.5207 14.2978C93.0167 14.6139 92.6153 15.0837 92.3163 15.7072C92.0259 16.3222 91.8807 17.0782 91.8807 17.975V19.2563C91.8807 20.119 92.0259 20.8579 92.3163 21.4729C92.6067 22.0793 93.0167 22.5491 93.5463 22.8823C94.0845 23.2068 94.7208 23.3691 95.4554 23.3691C96.0277 23.3691 96.5188 23.288 96.9288 23.1257C97.3474 22.9549 97.6848 22.7541 97.941 22.5235C98.1973 22.2843 98.3767 22.058 98.4792 21.8444L98.5176 21.7547H101.541L101.516 21.8701C101.405 22.3228 101.2 22.784 100.901 23.2538C100.61 23.7151 100.213 24.1464 99.7092 24.5479C99.2138 24.9408 98.6073 25.2611 97.8898 25.5088C97.1723 25.748 96.3395 25.8676 95.3913 25.8676Z" fill="#5E7897"/>
  <path d="M109.639 25.8676C108.452 25.8676 107.427 25.701 106.564 25.3679C105.71 25.0262 105.035 24.5564 104.54 23.9585C104.045 23.352 103.75 22.6516 103.656 21.8572V21.8316H106.821L106.833 21.8572C107.004 22.3441 107.325 22.7413 107.794 23.0488C108.264 23.3563 108.896 23.5101 109.691 23.5101C110.22 23.5101 110.686 23.4375 111.087 23.2923C111.489 23.1385 111.805 22.9292 112.035 22.6644C112.266 22.3996 112.381 22.0921 112.381 21.7419V21.7163C112.381 21.3063 112.215 20.9646 111.882 20.6913C111.548 20.4094 110.998 20.1831 110.229 20.0122L107.961 19.4997C107.073 19.3033 106.338 19.0299 105.757 18.6797C105.176 18.3295 104.741 17.8982 104.45 17.3857C104.168 16.8732 104.028 16.2752 104.028 15.5919V15.5791C104.028 14.7335 104.262 13.9903 104.732 13.3497C105.211 12.7091 105.873 12.2094 106.718 11.8506C107.564 11.4919 108.538 11.3125 109.639 11.3125C110.775 11.3125 111.753 11.4833 112.574 11.825C113.394 12.1667 114.034 12.6365 114.495 13.2344C114.957 13.8323 115.221 14.5114 115.29 15.2716V15.2972H112.292L112.279 15.2588C112.159 14.8146 111.873 14.4388 111.42 14.1313C110.976 13.8152 110.378 13.6572 109.627 13.6572C109.157 13.6572 108.734 13.7298 108.358 13.875C107.991 14.0202 107.7 14.2252 107.487 14.49C107.282 14.7463 107.179 15.0495 107.179 15.3997V15.4125C107.179 15.6859 107.248 15.925 107.384 16.13C107.53 16.335 107.756 16.5144 108.063 16.6682C108.371 16.8219 108.777 16.9586 109.281 17.0782L111.548 17.5778C112.924 17.8853 113.94 18.3423 114.598 18.9488C115.256 19.5553 115.584 20.371 115.584 21.396V21.4216C115.584 22.31 115.328 23.0873 114.816 23.7535C114.303 24.4198 113.599 24.9408 112.702 25.3166C111.805 25.6839 110.784 25.8676 109.639 25.8676Z" fill="#5E7897"/>
  <path d="M118.314 25.5857V11.5816H121.492V25.5857H118.314ZM119.916 9.23687C119.395 9.23687 118.946 9.05322 118.57 8.68593C118.194 8.31864 118.007 7.87874 118.007 7.36624C118.007 6.83665 118.194 6.39248 118.57 6.03373C118.946 5.66643 119.395 5.48279 119.916 5.48279C120.437 5.48279 120.881 5.66643 121.248 6.03373C121.624 6.39248 121.812 6.83665 121.812 7.36624C121.812 7.87874 121.624 8.31864 121.248 8.68593C120.881 9.05322 120.437 9.23687 119.916 9.23687Z" fill="#5E7897"/>
  <path d="M130.922 30.5057C129.692 30.5057 128.629 30.3434 127.732 30.0188C126.843 29.6943 126.143 29.233 125.631 28.6351C125.118 28.0457 124.806 27.3581 124.695 26.5723L124.708 26.5338H127.886L127.911 26.5723C128.014 27.0164 128.325 27.3795 128.846 27.6613C129.376 27.9518 130.085 28.097 130.973 28.097C132.067 28.097 132.912 27.8535 133.51 27.3666C134.117 26.8798 134.42 26.1879 134.42 25.291V22.6004H134.202C133.937 23.1043 133.591 23.5314 133.164 23.8816C132.746 24.2318 132.263 24.4966 131.716 24.676C131.178 24.8468 130.585 24.9323 129.936 24.9323C128.757 24.9323 127.736 24.6504 126.873 24.0866C126.011 23.5143 125.344 22.7242 124.875 21.7163C124.413 20.7084 124.183 19.5424 124.183 18.2185V18.1929C124.183 16.8433 124.418 15.656 124.887 14.631C125.357 13.606 126.023 12.803 126.886 12.2222C127.757 11.6414 128.795 11.3509 130 11.3509C130.649 11.3509 131.242 11.4534 131.781 11.6584C132.327 11.8634 132.806 12.1539 133.216 12.5297C133.634 12.9055 133.976 13.3582 134.241 13.8878H134.407V11.5816H137.597V25.2398C137.597 26.316 137.324 27.2471 136.777 28.0329C136.239 28.8273 135.471 29.438 134.471 29.8651C133.472 30.2922 132.289 30.5057 130.922 30.5057ZM130.922 22.3954C131.657 22.3954 132.289 22.2203 132.818 21.8701C133.348 21.5113 133.754 21.0202 134.036 20.3966C134.326 19.7731 134.471 19.047 134.471 18.2185V18.1929C134.471 17.3643 134.326 16.6383 134.036 16.0147C133.754 15.3826 133.348 14.8915 132.818 14.5413C132.289 14.1825 131.657 14.0031 130.922 14.0031C130.179 14.0031 129.547 14.1825 129.026 14.5413C128.513 14.8915 128.12 15.3826 127.847 16.0147C127.582 16.6383 127.45 17.3643 127.45 18.1929V18.2185C127.45 19.0385 127.582 19.7645 127.847 20.3966C128.12 21.0202 128.513 21.5113 129.026 21.8701C129.547 22.2203 130.179 22.3954 130.922 22.3954Z" fill="#5E7897"/>
  <path d="M140.98 25.5857V11.5816H144.171V13.7341H144.389C144.722 12.9739 145.226 12.3802 145.901 11.9531C146.575 11.526 147.417 11.3125 148.425 11.3125C149.988 11.3125 151.184 11.7652 152.012 12.6706C152.841 13.5761 153.255 14.8616 153.255 16.5272V25.5857H150.065V17.2703C150.065 16.177 149.834 15.357 149.373 14.8103C148.92 14.2637 148.211 13.9903 147.246 13.9903C146.614 13.9903 146.067 14.1313 145.606 14.4131C145.145 14.695 144.79 15.0922 144.542 15.6047C144.295 16.1172 144.171 16.7237 144.171 17.4241V25.5857H140.98Z" fill="#5E7897"/>
  <path d="M169.72 26.047C168.285 26.047 167.038 25.8249 165.979 25.3807C164.928 24.9365 164.1 24.3173 163.493 23.5229C162.887 22.7285 162.545 21.8017 162.468 20.7426L162.455 20.5632H165.659L165.671 20.6913C165.723 21.2123 165.928 21.6651 166.286 22.0494C166.654 22.4338 167.141 22.737 167.747 22.9591C168.353 23.1727 169.045 23.2794 169.823 23.2794C170.566 23.2794 171.223 23.1641 171.796 22.9335C172.368 22.7029 172.816 22.3868 173.141 21.9854C173.466 21.5754 173.628 21.1056 173.628 20.576V20.5632C173.628 19.8969 173.367 19.3545 172.846 18.936C172.325 18.5089 171.467 18.1672 170.271 17.911L168.285 17.501C166.389 17.0995 165.009 16.4589 164.147 15.5791C163.292 14.6908 162.865 13.559 162.865 12.1838V12.1709C162.865 11.0691 163.156 10.1039 163.737 9.27531C164.326 8.44676 165.133 7.80186 166.158 7.34061C167.192 6.87082 168.375 6.63592 169.707 6.63592C171.074 6.63592 172.257 6.86655 173.256 7.3278C174.256 7.78051 175.042 8.39978 175.614 9.18562C176.186 9.97146 176.506 10.8598 176.575 11.8506L176.588 12.0172H173.436L173.41 11.8634C173.333 11.3766 173.133 10.9538 172.808 10.595C172.492 10.2277 172.069 9.93729 171.539 9.72375C171.01 9.5102 170.391 9.40343 169.682 9.40343C169.007 9.40343 168.405 9.5102 167.875 9.72375C167.346 9.92875 166.927 10.2192 166.619 10.595C166.321 10.9708 166.171 11.4235 166.171 11.9531V11.9659C166.171 12.6151 166.423 13.1532 166.927 13.5803C167.439 14.0074 168.272 14.3405 169.425 14.5797L171.411 15.0025C172.71 15.2759 173.765 15.6389 174.576 16.0916C175.388 16.5443 175.981 17.1081 176.357 17.7829C176.741 18.4491 176.934 19.252 176.934 20.1916V20.2044C176.934 21.4003 176.639 22.4338 176.05 23.3051C175.469 24.1763 174.636 24.8511 173.551 25.3294C172.475 25.8078 171.198 26.047 169.72 26.047Z" fill="#5E7897"/>
  <path d="M181.29 30.5057C181.094 30.5057 180.889 30.5015 180.675 30.4929C180.47 30.4844 180.27 30.4716 180.073 30.4545V28.0073C180.201 28.0244 180.351 28.0329 180.522 28.0329C180.692 28.0414 180.859 28.0457 181.021 28.0457C181.679 28.0457 182.204 27.9005 182.597 27.6101C182.999 27.3282 183.285 26.8712 183.456 26.2391L183.622 25.5985L178.613 11.5816H182.098L185.788 23.9841L184.916 22.5235H186.018L185.173 23.9841L188.863 11.5816H192.219L187.197 25.8932C186.787 27.0549 186.321 27.9731 185.8 28.6479C185.288 29.3227 184.664 29.801 183.93 30.0829C183.204 30.3648 182.324 30.5057 181.29 30.5057Z" fill="#5E7897"/>
  <path d="M199.318 25.8676C198.131 25.8676 197.106 25.701 196.243 25.3679C195.389 25.0262 194.714 24.5564 194.219 23.9585C193.723 23.352 193.429 22.6516 193.335 21.8572V21.8316H196.499L196.512 21.8572C196.683 22.3441 197.003 22.7413 197.473 23.0488C197.943 23.3563 198.575 23.5101 199.369 23.5101C199.899 23.5101 200.365 23.4375 200.766 23.2923C201.167 23.1385 201.483 22.9292 201.714 22.6644C201.945 22.3996 202.06 22.0921 202.06 21.7419V21.7163C202.06 21.3063 201.893 20.9646 201.56 20.6913C201.227 20.4094 200.676 20.1831 199.908 20.0122L197.64 19.4997C196.751 19.3033 196.017 19.0299 195.436 18.6797C194.855 18.3295 194.419 17.8982 194.129 17.3857C193.847 16.8732 193.706 16.2752 193.706 15.5919V15.5791C193.706 14.7335 193.941 13.9903 194.411 13.3497C194.889 12.7091 195.551 12.2094 196.397 11.8506C197.243 11.4919 198.216 11.3125 199.318 11.3125C200.454 11.3125 201.432 11.4833 202.252 11.825C203.072 12.1667 203.713 12.6365 204.174 13.2344C204.635 13.8323 204.9 14.5114 204.968 15.2716V15.2972H201.97L201.958 15.2588C201.838 14.8146 201.552 14.4388 201.099 14.1313C200.655 13.8152 200.057 13.6572 199.305 13.6572C198.836 13.6572 198.413 13.7298 198.037 13.875C197.67 14.0202 197.379 14.2252 197.166 14.49C196.961 14.7463 196.858 15.0495 196.858 15.3997V15.4125C196.858 15.6859 196.926 15.925 197.063 16.13C197.208 16.335 197.435 16.5144 197.742 16.6682C198.05 16.8219 198.455 16.9586 198.959 17.0782L201.227 17.5778C202.602 17.8853 203.619 18.3423 204.277 18.9488C204.934 19.5553 205.263 20.371 205.263 21.396V21.4216C205.263 22.31 205.007 23.0873 204.494 23.7535C203.982 24.4198 203.277 24.9408 202.38 25.3166C201.483 25.6839 200.463 25.8676 199.318 25.8676Z" fill="#5E7897"/>
  <path d="M213.387 25.6498C211.781 25.6498 210.624 25.3551 209.915 24.7657C209.206 24.1763 208.851 23.2111 208.851 21.8701V14.0544H206.673V11.5816H208.851V8.1478H212.093V11.5816H215.04V14.0544H212.093V21.1141C212.093 21.806 212.238 22.3142 212.528 22.6388C212.827 22.9549 213.306 23.1129 213.963 23.1129C214.194 23.1129 214.382 23.1086 214.527 23.1001C214.681 23.083 214.852 23.0659 215.04 23.0488V25.5088C214.818 25.5515 214.561 25.5857 214.271 25.6113C213.989 25.637 213.694 25.6498 213.387 25.6498Z" fill="#5E7897"/>
  <path d="M223.573 25.8676C222.181 25.8676 220.985 25.5729 219.986 24.9835C218.995 24.3941 218.231 23.557 217.692 22.4722C217.154 21.3875 216.885 20.1019 216.885 18.6157V18.6029C216.885 17.1337 217.15 15.8524 217.68 14.7591C218.218 13.6657 218.978 12.8201 219.96 12.2222C220.943 11.6157 222.096 11.3125 223.42 11.3125C224.752 11.3125 225.897 11.6072 226.853 12.1966C227.819 12.7774 228.562 13.5931 229.083 14.6438C229.604 15.6944 229.864 16.9244 229.864 18.3338V19.3844H218.487V17.2447H228.301L226.789 19.2435V17.975C226.789 17.044 226.648 16.271 226.366 15.656C226.085 15.041 225.692 14.5797 225.188 14.2722C224.692 13.9647 224.116 13.811 223.458 13.811C222.8 13.811 222.215 13.9732 221.703 14.2978C221.199 14.6139 220.797 15.0837 220.498 15.7072C220.208 16.3222 220.063 17.0782 220.063 17.975V19.2563C220.063 20.119 220.208 20.8579 220.498 21.4729C220.789 22.0793 221.199 22.5491 221.728 22.8823C222.266 23.2068 222.903 23.3691 223.637 23.3691C224.21 23.3691 224.701 23.288 225.111 23.1257C225.529 22.9549 225.867 22.7541 226.123 22.5235C226.379 22.2843 226.559 22.058 226.661 21.8444L226.7 21.7547H229.723L229.698 21.8701C229.587 22.3228 229.382 22.784 229.083 23.2538C228.792 23.7151 228.395 24.1464 227.891 24.5479C227.396 24.9408 226.789 25.2611 226.072 25.5088C225.354 25.748 224.521 25.8676 223.573 25.8676Z" fill="#5E7897"/>
  <path d="M232.53 25.5857V11.5816H235.72V13.7597H235.938C236.237 12.9824 236.72 12.3802 237.386 11.9531C238.061 11.526 238.859 11.3125 239.782 11.3125C240.414 11.3125 240.982 11.415 241.486 11.62C241.998 11.825 242.438 12.1154 242.806 12.4913C243.173 12.8671 243.455 13.3155 243.651 13.8366H243.882C244.112 13.3326 244.433 12.8927 244.843 12.5169C245.261 12.1325 245.748 11.8378 246.303 11.6328C246.867 11.4193 247.474 11.3125 248.123 11.3125C249.062 11.3125 249.865 11.5004 250.532 11.8763C251.206 12.2436 251.723 12.7731 252.082 13.465C252.449 14.1569 252.633 14.9854 252.633 15.9507V25.5857H249.442V16.7322C249.442 16.1172 249.348 15.609 249.161 15.2075C248.981 14.8061 248.704 14.5028 248.328 14.2978C247.952 14.0928 247.478 13.9903 246.906 13.9903C246.35 13.9903 245.868 14.1185 245.458 14.3747C245.048 14.6224 244.727 14.9598 244.497 15.3869C244.275 15.814 244.164 16.2966 244.164 16.8347V25.5857H240.973V16.5016C240.973 15.9805 240.871 15.5321 240.666 15.1563C240.469 14.7804 240.179 14.4943 239.795 14.2978C239.419 14.0928 238.97 13.9903 238.449 13.9903C237.928 13.9903 237.458 14.127 237.04 14.4003C236.63 14.6651 236.305 15.0324 236.066 15.5022C235.835 15.9635 235.72 16.4845 235.72 17.0653V25.5857H232.53Z" fill="#5E7897"/>
  <path d="M74.5468 47.7936C73.4958 47.7936 72.5884 47.5577 71.8245 47.0861C71.0657 46.6144 70.4787 45.9454 70.0634 45.079C69.6533 44.2074 69.4482 43.1744 69.4482 41.9799V41.9645C69.4482 40.7649 69.6533 39.7318 70.0634 38.8654C70.4787 37.9939 71.0657 37.3223 71.8245 36.8506C72.5832 36.379 73.4881 36.1431 74.5391 36.1431C75.3798 36.1431 76.1386 36.3098 76.8153 36.643C77.492 36.9711 78.0432 37.4274 78.4687 38.0118C78.8942 38.5911 79.1505 39.2576 79.2377 40.0112L79.23 40.0728H77.2921L77.2844 40.0343C77.1921 39.5985 77.0178 39.2192 76.7615 38.8962C76.5052 38.5681 76.1873 38.3143 75.8079 38.1349C75.4285 37.9503 75.0056 37.858 74.5391 37.858C73.9136 37.858 73.3702 38.0246 72.9088 38.3579C72.4474 38.6911 72.0911 39.1653 71.8399 39.7805C71.5938 40.3906 71.4707 41.116 71.4707 41.9568V41.9722C71.4707 42.813 71.5938 43.541 71.8399 44.1562C72.0911 44.7714 72.4474 45.2456 72.9088 45.5788C73.3702 45.9121 73.9162 46.0787 74.5468 46.0787C75.0184 46.0787 75.4414 45.9967 75.8156 45.8326C76.195 45.6686 76.5103 45.4379 76.7615 45.1405C77.0178 44.838 77.1921 44.4843 77.2844 44.0793L77.2998 44.0331H79.2377V44.0947C79.1403 44.8329 78.8814 45.4789 78.461 46.0326C78.0406 46.5862 77.4972 47.0194 76.8307 47.3322C76.1642 47.6398 75.4029 47.7936 74.5468 47.7936Z" fill="#5E7897"/>
  <path d="M89.3855 47.7936C88.2986 47.7936 87.363 47.5577 86.5786 47.0861C85.7994 46.6093 85.197 45.9351 84.7715 45.0636C84.3459 44.1921 84.1332 43.1616 84.1332 41.9722V41.9568C84.1332 40.7623 84.3459 39.7318 84.7715 38.8654C85.2021 37.9939 85.8096 37.3223 86.594 36.8506C87.3835 36.379 88.314 36.1431 89.3855 36.1431C90.4621 36.1431 91.3926 36.379 92.177 36.8506C92.9614 37.3223 93.5663 37.9939 93.9918 38.8654C94.4174 39.737 94.6301 40.7674 94.6301 41.9568V41.9722C94.6301 43.1616 94.4174 44.1921 93.9918 45.0636C93.5714 45.9351 92.9691 46.6093 92.1847 47.0861C91.4003 47.5577 90.4672 47.7936 89.3855 47.7936ZM89.3855 46.0787C90.0468 46.0787 90.6185 45.9095 91.1004 45.5712C91.5823 45.2328 91.954 44.756 92.2154 44.1408C92.482 43.5256 92.6153 42.8027 92.6153 41.9722V41.9568C92.6153 41.1212 92.482 40.3983 92.2154 39.7882C91.954 39.173 91.5823 38.6988 91.1004 38.3656C90.6185 38.0272 90.0468 37.858 89.3855 37.858C88.7293 37.858 88.1576 38.0272 87.6706 38.3656C87.1887 38.6988 86.8145 39.173 86.5479 39.7882C86.2864 40.3983 86.1557 41.1212 86.1557 41.9568V41.9722C86.1557 42.8027 86.2838 43.5256 86.5402 44.1408C86.8016 44.756 87.1733 45.2328 87.6552 45.5712C88.1423 45.9095 88.719 46.0787 89.3855 46.0787Z" fill="#5E7897"/>
  <path d="M100.056 47.5167V36.42H102.332L105.67 44.9636H105.801L109.13 36.42H111.407V47.5167H109.623V39.6267H108.654L110.622 36.7276L106.408 47.5167H105.055L100.848 36.7276L102.817 39.6267H101.84V47.5167H100.056Z" fill="#5E7897"/>
  <path d="M117.294 47.5167V36.42H119.571L122.908 44.9636H123.039L126.369 36.42H128.645V47.5167H126.861V39.6267H125.892L127.86 36.7276L123.646 47.5167H122.293L118.086 36.7276L120.055 39.6267H119.078V47.5167H117.294Z" fill="#5E7897"/>
  <path d="M134.532 47.5167V36.42H141.715V38.0887H136.516V41.0955H141.43V42.672H136.516V45.848H141.715V47.5167H134.532Z" fill="#5E7897"/>
  <path d="M147.325 47.5167V36.42H151.809C152.603 36.42 153.285 36.561 153.854 36.8429C154.423 37.1249 154.859 37.5222 155.162 38.0349C155.464 38.5476 155.615 39.1576 155.615 39.8651V39.8805C155.615 40.6136 155.431 41.2647 155.062 41.8338C154.698 42.3977 154.188 42.7976 153.531 43.0334L155.954 47.5167H153.693L151.509 43.341C151.499 43.341 151.483 43.341 151.463 43.341C151.442 43.341 151.424 43.341 151.409 43.341H149.31V47.5167H147.325ZM149.31 41.8184H151.601C152.232 41.8184 152.721 41.6518 153.07 41.3185C153.419 40.9853 153.593 40.5213 153.593 39.9266V39.9113C153.593 39.3319 153.411 38.8731 153.047 38.5347C152.688 38.1913 152.193 38.0195 151.563 38.0195H149.31V41.8184Z" fill="#5E7897"/>
  <path d="M165.809 47.7936C164.758 47.7936 163.851 47.5577 163.087 47.0861C162.328 46.6144 161.741 45.9454 161.326 45.079C160.916 44.2074 160.711 43.1744 160.711 41.9799V41.9645C160.711 40.7649 160.916 39.7318 161.326 38.8654C161.741 37.9939 162.328 37.3223 163.087 36.8506C163.846 36.379 164.751 36.1431 165.802 36.1431C166.642 36.1431 167.401 36.3098 168.078 36.643C168.755 36.9711 169.306 37.4274 169.731 38.0118C170.157 38.5911 170.413 39.2576 170.5 40.0112L170.493 40.0728H168.555L168.547 40.0343C168.455 39.5985 168.28 39.2192 168.024 38.8962C167.768 38.5681 167.45 38.3143 167.07 38.1349C166.691 37.9503 166.268 37.858 165.802 37.858C165.176 37.858 164.633 38.0246 164.171 38.3579C163.71 38.6911 163.354 39.1653 163.102 39.7805C162.856 40.3906 162.733 41.116 162.733 41.9568V41.9722C162.733 42.813 162.856 43.541 163.102 44.1562C163.354 44.7714 163.71 45.2456 164.171 45.5788C164.633 45.9121 165.179 46.0787 165.809 46.0787C166.281 46.0787 166.704 45.9967 167.078 45.8326C167.458 45.6686 167.773 45.4379 168.024 45.1405C168.28 44.838 168.455 44.4843 168.547 44.0793L168.562 44.0331H170.5V44.0947C170.403 44.8329 170.144 45.4789 169.724 46.0326C169.303 46.5862 168.76 47.0194 168.093 47.3322C167.427 47.6398 166.665 47.7936 165.809 47.7936Z" fill="#5E7897"/>
  <path d="M175.865 47.5167V36.42H183.047V38.0887H177.849V41.0955H182.763V42.672H177.849V45.848H183.047V47.5167H175.865Z" fill="#5E7897"/>
  <path d="M199.859 47.7936C198.998 47.7936 198.25 47.6603 197.614 47.3937C196.983 47.1271 196.486 46.7554 196.122 46.2786C195.758 45.8019 195.553 45.2456 195.507 44.6099L195.499 44.5022H197.422L197.429 44.5791C197.46 44.8919 197.583 45.1636 197.798 45.3943C198.019 45.625 198.311 45.807 198.675 45.9403C199.039 46.0684 199.454 46.1325 199.921 46.1325C200.367 46.1325 200.762 46.0633 201.105 45.9249C201.449 45.7865 201.718 45.5968 201.913 45.3558C202.107 45.1097 202.205 44.8278 202.205 44.5099V44.5022C202.205 44.1023 202.048 43.7768 201.736 43.5256C201.423 43.2693 200.908 43.0642 200.19 42.9104L198.998 42.6643C197.86 42.4234 197.032 42.0388 196.514 41.5108C196.002 40.9776 195.745 40.2983 195.745 39.4729V39.4652C195.745 38.8039 195.919 38.2246 196.268 37.7273C196.622 37.23 197.106 36.8429 197.722 36.5661C198.342 36.2841 199.052 36.1431 199.852 36.1431C200.672 36.1431 201.382 36.2816 201.982 36.5584C202.582 36.8301 203.053 37.2018 203.397 37.6735C203.74 38.1451 203.933 38.6783 203.974 39.273L203.981 39.373H202.089L202.074 39.2807C202.028 38.9885 201.907 38.7347 201.713 38.5194C201.523 38.2989 201.269 38.1246 200.951 37.9964C200.634 37.8683 200.262 37.8042 199.836 37.8042C199.431 37.8042 199.07 37.8683 198.752 37.9964C198.434 38.1195 198.183 38.2938 197.998 38.5194C197.819 38.7449 197.729 39.0167 197.729 39.3345V39.3422C197.729 39.7318 197.88 40.0548 198.183 40.3111C198.491 40.5675 198.99 40.7674 199.682 40.911L200.874 41.1647C201.654 41.3288 202.287 41.5467 202.774 41.8184C203.261 42.0901 203.617 42.4285 203.843 42.8335C204.074 43.2334 204.189 43.7153 204.189 44.2792V44.2869C204.189 45.0046 204.012 45.625 203.658 46.1479C203.31 46.6708 202.81 47.0758 202.159 47.3629C201.513 47.65 200.746 47.7936 199.859 47.7936Z" fill="#5E7897"/>
  <path d="M214.121 47.7936C213.188 47.7936 212.381 47.6218 211.699 47.2783C211.017 46.9349 210.489 46.4555 210.115 45.8403C209.746 45.2251 209.561 44.5099 209.561 43.6948V36.42H211.537V43.5333C211.537 44.0408 211.637 44.4869 211.837 44.8714C212.042 45.2507 212.337 45.5481 212.722 45.7634C213.106 45.9736 213.575 46.0787 214.129 46.0787C214.678 46.0787 215.144 45.9736 215.529 45.7634C215.913 45.5481 216.205 45.2507 216.405 44.8714C216.605 44.4869 216.705 44.0408 216.705 43.5333V36.42H218.682V43.6948C218.682 44.5099 218.497 45.2251 218.128 45.8403C217.759 46.4555 217.233 46.9349 216.551 47.2783C215.875 47.6218 215.065 47.7936 214.121 47.7936Z" fill="#5E7897"/>
  <path d="M224.561 47.5167V36.42H226.545V47.5167H224.561Z" fill="#5E7897"/>
  <path d="M235.194 47.5167V38.0887H231.779V36.42H240.592V38.0887H237.178V47.5167H235.194Z" fill="#5E7897"/>
  <path d="M245.826 47.5167V36.42H253.008V38.0887H247.81V41.0955H252.724V42.672H247.81V45.848H253.008V47.5167H245.826Z" fill="#5E7897"/>
  <path d="M70.8291 25.5857V7.09717H77.7607C79.5972 7.09717 81.1603 7.45592 82.4501 8.17343C83.7485 8.89093 84.7393 9.93302 85.4227 11.2997C86.1145 12.6664 86.4605 14.3149 86.4605 16.2453V16.271C86.4605 18.2441 86.1188 19.9268 85.4355 21.3191C84.7521 22.7029 83.7613 23.762 82.463 24.4966C81.1732 25.2227 79.6057 25.5857 77.7607 25.5857H70.8291ZM74.1348 22.8054H77.3251C78.5466 22.8054 79.5887 22.5534 80.4514 22.0494C81.3141 21.5455 81.9675 20.8109 82.4117 19.8457C82.8644 18.8805 83.0908 17.706 83.0908 16.3222V16.2966C83.0908 14.947 82.8601 13.7939 82.3989 12.8372C81.9462 11.872 81.2885 11.1374 80.4258 10.6334C79.563 10.1295 78.5295 9.8775 77.3251 9.8775H74.1348V22.8054Z" stroke="#5E7897" stroke-width="0.061946" mask="url(#path-2-outside-1_38_495)"/>
  <path d="M95.3913 25.8676C93.999 25.8676 92.8032 25.5729 91.8038 24.9835C90.813 24.3941 90.0485 23.557 89.5104 22.4722C88.9722 21.3875 88.7032 20.1019 88.7032 18.6157V18.6029C88.7032 17.1337 88.968 15.8524 89.4976 14.7591C90.0357 13.6657 90.7959 12.8201 91.7782 12.2222C92.7605 11.6157 93.9136 11.3125 95.2376 11.3125C96.5701 11.3125 97.7147 11.6072 98.6714 12.1966C99.6366 12.7774 100.38 13.5931 100.901 14.6438C101.422 15.6944 101.682 16.9244 101.682 18.3338V19.3844H90.3048V17.2447H100.119L98.6073 19.2435V17.975C98.6073 17.044 98.4664 16.271 98.1845 15.656C97.9026 15.041 97.5097 14.5797 97.0057 14.2722C96.5103 13.9647 95.9337 13.811 95.276 13.811C94.6183 13.811 94.0332 13.9732 93.5207 14.2978C93.0167 14.6139 92.6153 15.0837 92.3163 15.7072C92.0259 16.3222 91.8807 17.0782 91.8807 17.975V19.2563C91.8807 20.119 92.0259 20.8579 92.3163 21.4729C92.6067 22.0793 93.0167 22.5491 93.5463 22.8823C94.0845 23.2068 94.7208 23.3691 95.4554 23.3691C96.0277 23.3691 96.5188 23.288 96.9288 23.1257C97.3474 22.9549 97.6848 22.7541 97.941 22.5235C98.1973 22.2843 98.3767 22.058 98.4792 21.8444L98.5176 21.7547H101.541L101.516 21.8701C101.405 22.3228 101.2 22.784 100.901 23.2538C100.61 23.7151 100.213 24.1464 99.7092 24.5479C99.2138 24.9408 98.6073 25.2611 97.8898 25.5088C97.1723 25.748 96.3395 25.8676 95.3913 25.8676Z" stroke="#5E7897" stroke-width="0.061946" mask="url(#path-2-outside-1_38_495)"/>
  <path d="M109.639 25.8676C108.452 25.8676 107.427 25.701 106.564 25.3679C105.71 25.0262 105.035 24.5564 104.54 23.9585C104.045 23.352 103.75 22.6516 103.656 21.8572V21.8316H106.821L106.833 21.8572C107.004 22.3441 107.325 22.7413 107.794 23.0488C108.264 23.3563 108.896 23.5101 109.691 23.5101C110.22 23.5101 110.686 23.4375 111.087 23.2923C111.489 23.1385 111.805 22.9292 112.035 22.6644C112.266 22.3996 112.381 22.0921 112.381 21.7419V21.7163C112.381 21.3063 112.215 20.9646 111.882 20.6913C111.548 20.4094 110.998 20.1831 110.229 20.0122L107.961 19.4997C107.073 19.3033 106.338 19.0299 105.757 18.6797C105.176 18.3295 104.741 17.8982 104.45 17.3857C104.168 16.8732 104.028 16.2752 104.028 15.5919V15.5791C104.028 14.7335 104.262 13.9903 104.732 13.3497C105.211 12.7091 105.873 12.2094 106.718 11.8506C107.564 11.4919 108.538 11.3125 109.639 11.3125C110.775 11.3125 111.753 11.4833 112.574 11.825C113.394 12.1667 114.034 12.6365 114.495 13.2344C114.957 13.8323 115.221 14.5114 115.29 15.2716V15.2972H112.292L112.279 15.2588C112.159 14.8146 111.873 14.4388 111.42 14.1313C110.976 13.8152 110.378 13.6572 109.627 13.6572C109.157 13.6572 108.734 13.7298 108.358 13.875C107.991 14.0202 107.7 14.2252 107.487 14.49C107.282 14.7463 107.179 15.0495 107.179 15.3997V15.4125C107.179 15.6859 107.248 15.925 107.384 16.13C107.53 16.335 107.756 16.5144 108.063 16.6682C108.371 16.8219 108.777 16.9586 109.281 17.0782L111.548 17.5778C112.924 17.8853 113.94 18.3423 114.598 18.9488C115.256 19.5553 115.584 20.371 115.584 21.396V21.4216C115.584 22.31 115.328 23.0873 114.816 23.7535C114.303 24.4198 113.599 24.9408 112.702 25.3166C111.805 25.6839 110.784 25.8676 109.639 25.8676Z" stroke="#5E7897" stroke-width="0.061946" mask="url(#path-2-outside-1_38_495)"/>
  <path d="M118.314 25.5857V11.5816H121.492V25.5857H118.314ZM119.916 9.23687C119.395 9.23687 118.946 9.05322 118.57 8.68593C118.194 8.31864 118.007 7.87874 118.007 7.36624C118.007 6.83665 118.194 6.39248 118.57 6.03373C118.946 5.66643 119.395 5.48279 119.916 5.48279C120.437 5.48279 120.881 5.66643 121.248 6.03373C121.624 6.39248 121.812 6.83665 121.812 7.36624C121.812 7.87874 121.624 8.31864 121.248 8.68593C120.881 9.05322 120.437 9.23687 119.916 9.23687Z" stroke="#5E7897" stroke-width="0.061946" mask="url(#path-2-outside-1_38_495)"/>
  <path d="M130.922 30.5057C129.692 30.5057 128.629 30.3434 127.732 30.0188C126.843 29.6943 126.143 29.233 125.631 28.6351C125.118 28.0457 124.806 27.3581 124.695 26.5723L124.708 26.5338H127.886L127.911 26.5723C128.014 27.0164 128.325 27.3795 128.846 27.6613C129.376 27.9518 130.085 28.097 130.973 28.097C132.067 28.097 132.912 27.8535 133.51 27.3666C134.117 26.8798 134.42 26.1879 134.42 25.291V22.6004H134.202C133.937 23.1043 133.591 23.5314 133.164 23.8816C132.746 24.2318 132.263 24.4966 131.716 24.676C131.178 24.8468 130.585 24.9323 129.936 24.9323C128.757 24.9323 127.736 24.6504 126.873 24.0866C126.011 23.5143 125.344 22.7242 124.875 21.7163C124.413 20.7084 124.183 19.5424 124.183 18.2185V18.1929C124.183 16.8433 124.418 15.656 124.887 14.631C125.357 13.606 126.023 12.803 126.886 12.2222C127.757 11.6414 128.795 11.3509 130 11.3509C130.649 11.3509 131.242 11.4534 131.781 11.6584C132.327 11.8634 132.806 12.1539 133.216 12.5297C133.634 12.9055 133.976 13.3582 134.241 13.8878H134.407V11.5816H137.597V25.2398C137.597 26.316 137.324 27.2471 136.777 28.0329C136.239 28.8273 135.471 29.438 134.471 29.8651C133.472 30.2922 132.289 30.5057 130.922 30.5057ZM130.922 22.3954C131.657 22.3954 132.289 22.2203 132.818 21.8701C133.348 21.5113 133.754 21.0202 134.036 20.3966C134.326 19.7731 134.471 19.047 134.471 18.2185V18.1929C134.471 17.3643 134.326 16.6383 134.036 16.0147C133.754 15.3826 133.348 14.8915 132.818 14.5413C132.289 14.1825 131.657 14.0031 130.922 14.0031C130.179 14.0031 129.547 14.1825 129.026 14.5413C128.513 14.8915 128.12 15.3826 127.847 16.0147C127.582 16.6383 127.45 17.3643 127.45 18.1929V18.2185C127.45 19.0385 127.582 19.7645 127.847 20.3966C128.12 21.0202 128.513 21.5113 129.026 21.8701C129.547 22.2203 130.179 22.3954 130.922 22.3954Z" stroke="#5E7897" stroke-width="0.061946" mask="url(#path-2-outside-1_38_495)"/>
  <path d="M140.98 25.5857V11.5816H144.171V13.7341H144.389C144.722 12.9739 145.226 12.3802 145.901 11.9531C146.575 11.526 147.417 11.3125 148.425 11.3125C149.988 11.3125 151.184 11.7652 152.012 12.6706C152.841 13.5761 153.255 14.8616 153.255 16.5272V25.5857H150.065V17.2703C150.065 16.177 149.834 15.357 149.373 14.8103C148.92 14.2637 148.211 13.9903 147.246 13.9903C146.614 13.9903 146.067 14.1313 145.606 14.4131C145.145 14.695 144.79 15.0922 144.542 15.6047C144.295 16.1172 144.171 16.7237 144.171 17.4241V25.5857H140.98Z" stroke="#5E7897" stroke-width="0.061946" mask="url(#path-2-outside-1_38_495)"/>
  <path d="M169.72 26.047C168.285 26.047 167.038 25.8249 165.979 25.3807C164.928 24.9365 164.1 24.3173 163.493 23.5229C162.887 22.7285 162.545 21.8017 162.468 20.7426L162.455 20.5632H165.659L165.671 20.6913C165.723 21.2123 165.928 21.6651 166.286 22.0494C166.654 22.4338 167.141 22.737 167.747 22.9591C168.353 23.1727 169.045 23.2794 169.823 23.2794C170.566 23.2794 171.223 23.1641 171.796 22.9335C172.368 22.7029 172.816 22.3868 173.141 21.9854C173.466 21.5754 173.628 21.1056 173.628 20.576V20.5632C173.628 19.8969 173.367 19.3545 172.846 18.936C172.325 18.5089 171.467 18.1672 170.271 17.911L168.285 17.501C166.389 17.0995 165.009 16.4589 164.147 15.5791C163.292 14.6908 162.865 13.559 162.865 12.1838V12.1709C162.865 11.0691 163.156 10.1039 163.737 9.27531C164.326 8.44676 165.133 7.80186 166.158 7.34061C167.192 6.87082 168.375 6.63592 169.707 6.63592C171.074 6.63592 172.257 6.86655 173.256 7.3278C174.256 7.78051 175.042 8.39978 175.614 9.18562C176.186 9.97146 176.506 10.8598 176.575 11.8506L176.588 12.0172H173.436L173.41 11.8634C173.333 11.3766 173.133 10.9538 172.808 10.595C172.492 10.2277 172.069 9.93729 171.539 9.72375C171.01 9.5102 170.391 9.40343 169.682 9.40343C169.007 9.40343 168.405 9.5102 167.875 9.72375C167.346 9.92875 166.927 10.2192 166.619 10.595C166.321 10.9708 166.171 11.4235 166.171 11.9531V11.9659C166.171 12.6151 166.423 13.1532 166.927 13.5803C167.439 14.0074 168.272 14.3405 169.425 14.5797L171.411 15.0025C172.71 15.2759 173.765 15.6389 174.576 16.0916C175.388 16.5443 175.981 17.1081 176.357 17.7829C176.741 18.4491 176.934 19.252 176.934 20.1916V20.2044C176.934 21.4003 176.639 22.4338 176.05 23.3051C175.469 24.1763 174.636 24.8511 173.551 25.3294C172.475 25.8078 171.198 26.047 169.72 26.047Z" stroke="#5E7897" stroke-width="0.061946" mask="url(#path-2-outside-1_38_495)"/>
  <path d="M181.29 30.5057C181.094 30.5057 180.889 30.5015 180.675 30.4929C180.47 30.4844 180.27 30.4716 180.073 30.4545V28.0073C180.201 28.0244 180.351 28.0329 180.522 28.0329C180.692 28.0414 180.859 28.0457 181.021 28.0457C181.679 28.0457 182.204 27.9005 182.597 27.6101C182.999 27.3282 183.285 26.8712 183.456 26.2391L183.622 25.5985L178.613 11.5816H182.098L185.788 23.9841L184.916 22.5235H186.018L185.173 23.9841L188.863 11.5816H192.219L187.197 25.8932C186.787 27.0549 186.321 27.9731 185.8 28.6479C185.288 29.3227 184.664 29.801 183.93 30.0829C183.204 30.3648 182.324 30.5057 181.29 30.5057Z" stroke="#5E7897" stroke-width="0.061946" mask="url(#path-2-outside-1_38_495)"/>
  <path d="M199.318 25.8676C198.131 25.8676 197.106 25.701 196.243 25.3679C195.389 25.0262 194.714 24.5564 194.219 23.9585C193.723 23.352 193.429 22.6516 193.335 21.8572V21.8316H196.499L196.512 21.8572C196.683 22.3441 197.003 22.7413 197.473 23.0488C197.943 23.3563 198.575 23.5101 199.369 23.5101C199.899 23.5101 200.365 23.4375 200.766 23.2923C201.167 23.1385 201.483 22.9292 201.714 22.6644C201.945 22.3996 202.06 22.0921 202.06 21.7419V21.7163C202.06 21.3063 201.893 20.9646 201.56 20.6913C201.227 20.4094 200.676 20.1831 199.908 20.0122L197.64 19.4997C196.751 19.3033 196.017 19.0299 195.436 18.6797C194.855 18.3295 194.419 17.8982 194.129 17.3857C193.847 16.8732 193.706 16.2752 193.706 15.5919V15.5791C193.706 14.7335 193.941 13.9903 194.411 13.3497C194.889 12.7091 195.551 12.2094 196.397 11.8506C197.243 11.4919 198.216 11.3125 199.318 11.3125C200.454 11.3125 201.432 11.4833 202.252 11.825C203.072 12.1667 203.713 12.6365 204.174 13.2344C204.635 13.8323 204.9 14.5114 204.968 15.2716V15.2972H201.97L201.958 15.2588C201.838 14.8146 201.552 14.4388 201.099 14.1313C200.655 13.8152 200.057 13.6572 199.305 13.6572C198.836 13.6572 198.413 13.7298 198.037 13.875C197.67 14.0202 197.379 14.2252 197.166 14.49C196.961 14.7463 196.858 15.0495 196.858 15.3997V15.4125C196.858 15.6859 196.926 15.925 197.063 16.13C197.208 16.335 197.435 16.5144 197.742 16.6682C198.05 16.8219 198.455 16.9586 198.959 17.0782L201.227 17.5778C202.602 17.8853 203.619 18.3423 204.277 18.9488C204.934 19.5553 205.263 20.371 205.263 21.396V21.4216C205.263 22.31 205.007 23.0873 204.494 23.7535C203.982 24.4198 203.277 24.9408 202.38 25.3166C201.483 25.6839 200.463 25.8676 199.318 25.8676Z" stroke="#5E7897" stroke-width="0.061946" mask="url(#path-2-outside-1_38_495)"/>
  <path d="M213.387 25.6498C211.781 25.6498 210.624 25.3551 209.915 24.7657C209.206 24.1763 208.851 23.2111 208.851 21.8701V14.0544H206.673V11.5816H208.851V8.1478H212.093V11.5816H215.04V14.0544H212.093V21.1141C212.093 21.806 212.238 22.3142 212.528 22.6388C212.827 22.9549 213.306 23.1129 213.963 23.1129C214.194 23.1129 214.382 23.1086 214.527 23.1001C214.681 23.083 214.852 23.0659 215.04 23.0488V25.5088C214.818 25.5515 214.561 25.5857 214.271 25.6113C213.989 25.637 213.694 25.6498 213.387 25.6498Z" stroke="#5E7897" stroke-width="0.061946" mask="url(#path-2-outside-1_38_495)"/>
  <path d="M223.573 25.8676C222.181 25.8676 220.985 25.5729 219.986 24.9835C218.995 24.3941 218.231 23.557 217.692 22.4722C217.154 21.3875 216.885 20.1019 216.885 18.6157V18.6029C216.885 17.1337 217.15 15.8524 217.68 14.7591C218.218 13.6657 218.978 12.8201 219.96 12.2222C220.943 11.6157 222.096 11.3125 223.42 11.3125C224.752 11.3125 225.897 11.6072 226.853 12.1966C227.819 12.7774 228.562 13.5931 229.083 14.6438C229.604 15.6944 229.864 16.9244 229.864 18.3338V19.3844H218.487V17.2447H228.301L226.789 19.2435V17.975C226.789 17.044 226.648 16.271 226.366 15.656C226.085 15.041 225.692 14.5797 225.188 14.2722C224.692 13.9647 224.116 13.811 223.458 13.811C222.8 13.811 222.215 13.9732 221.703 14.2978C221.199 14.6139 220.797 15.0837 220.498 15.7072C220.208 16.3222 220.063 17.0782 220.063 17.975V19.2563C220.063 20.119 220.208 20.8579 220.498 21.4729C220.789 22.0793 221.199 22.5491 221.728 22.8823C222.266 23.2068 222.903 23.3691 223.637 23.3691C224.21 23.3691 224.701 23.288 225.111 23.1257C225.529 22.9549 225.867 22.7541 226.123 22.5235C226.379 22.2843 226.559 22.058 226.661 21.8444L226.7 21.7547H229.723L229.698 21.8701C229.587 22.3228 229.382 22.784 229.083 23.2538C228.792 23.7151 228.395 24.1464 227.891 24.5479C227.396 24.9408 226.789 25.2611 226.072 25.5088C225.354 25.748 224.521 25.8676 223.573 25.8676Z" stroke="#5E7897" stroke-width="0.061946" mask="url(#path-2-outside-1_38_495)"/>
  <path d="M232.53 25.5857V11.5816H235.72V13.7597H235.938C236.237 12.9824 236.72 12.3802 237.386 11.9531C238.061 11.526 238.859 11.3125 239.782 11.3125C240.414 11.3125 240.982 11.415 241.486 11.62C241.998 11.825 242.438 12.1154 242.806 12.4913C243.173 12.8671 243.455 13.3155 243.651 13.8366H243.882C244.112 13.3326 244.433 12.8927 244.843 12.5169C245.261 12.1325 245.748 11.8378 246.303 11.6328C246.867 11.4193 247.474 11.3125 248.123 11.3125C249.062 11.3125 249.865 11.5004 250.532 11.8763C251.206 12.2436 251.723 12.7731 252.082 13.465C252.449 14.1569 252.633 14.9854 252.633 15.9507V25.5857H249.442V16.7322C249.442 16.1172 249.348 15.609 249.161 15.2075C248.981 14.8061 248.704 14.5028 248.328 14.2978C247.952 14.0928 247.478 13.9903 246.906 13.9903C246.35 13.9903 245.868 14.1185 245.458 14.3747C245.048 14.6224 244.727 14.9598 244.497 15.3869C244.275 15.814 244.164 16.2966 244.164 16.8347V25.5857H240.973V16.5016C240.973 15.9805 240.871 15.5321 240.666 15.1563C240.469 14.7804 240.179 14.4943 239.795 14.2978C239.419 14.0928 238.97 13.9903 238.449 13.9903C237.928 13.9903 237.458 14.127 237.04 14.4003C236.63 14.6651 236.305 15.0324 236.066 15.5022C235.835 15.9635 235.72 16.4845 235.72 17.0653V25.5857H232.53Z" stroke="#5E7897" stroke-width="0.061946" mask="url(#path-2-outside-1_38_495)"/>
  <path d="M74.5468 47.7936C73.4958 47.7936 72.5884 47.5577 71.8245 47.0861C71.0657 46.6144 70.4787 45.9454 70.0634 45.079C69.6533 44.2074 69.4482 43.1744 69.4482 41.9799V41.9645C69.4482 40.7649 69.6533 39.7318 70.0634 38.8654C70.4787 37.9939 71.0657 37.3223 71.8245 36.8506C72.5832 36.379 73.4881 36.1431 74.5391 36.1431C75.3798 36.1431 76.1386 36.3098 76.8153 36.643C77.492 36.9711 78.0432 37.4274 78.4687 38.0118C78.8942 38.5911 79.1505 39.2576 79.2377 40.0112L79.23 40.0728H77.2921L77.2844 40.0343C77.1921 39.5985 77.0178 39.2192 76.7615 38.8962C76.5052 38.5681 76.1873 38.3143 75.8079 38.1349C75.4285 37.9503 75.0056 37.858 74.5391 37.858C73.9136 37.858 73.3702 38.0246 72.9088 38.3579C72.4474 38.6911 72.0911 39.1653 71.8399 39.7805C71.5938 40.3906 71.4707 41.116 71.4707 41.9568V41.9722C71.4707 42.813 71.5938 43.541 71.8399 44.1562C72.0911 44.7714 72.4474 45.2456 72.9088 45.5788C73.3702 45.9121 73.9162 46.0787 74.5468 46.0787C75.0184 46.0787 75.4414 45.9967 75.8156 45.8326C76.195 45.6686 76.5103 45.4379 76.7615 45.1405C77.0178 44.838 77.1921 44.4843 77.2844 44.0793L77.2998 44.0331H79.2377V44.0947C79.1403 44.8329 78.8814 45.4789 78.461 46.0326C78.0406 46.5862 77.4972 47.0194 76.8307 47.3322C76.1642 47.6398 75.4029 47.7936 74.5468 47.7936Z" stroke="#5E7897" stroke-width="0.061946" mask="url(#path-2-outside-1_38_495)"/>
  <path d="M89.3855 47.7936C88.2986 47.7936 87.363 47.5577 86.5786 47.0861C85.7994 46.6093 85.197 45.9351 84.7715 45.0636C84.3459 44.1921 84.1332 43.1616 84.1332 41.9722V41.9568C84.1332 40.7623 84.3459 39.7318 84.7715 38.8654C85.2021 37.9939 85.8096 37.3223 86.594 36.8506C87.3835 36.379 88.314 36.1431 89.3855 36.1431C90.4621 36.1431 91.3926 36.379 92.177 36.8506C92.9614 37.3223 93.5663 37.9939 93.9918 38.8654C94.4174 39.737 94.6301 40.7674 94.6301 41.9568V41.9722C94.6301 43.1616 94.4174 44.1921 93.9918 45.0636C93.5714 45.9351 92.9691 46.6093 92.1847 47.0861C91.4003 47.5577 90.4672 47.7936 89.3855 47.7936ZM89.3855 46.0787C90.0468 46.0787 90.6185 45.9095 91.1004 45.5712C91.5823 45.2328 91.954 44.756 92.2154 44.1408C92.482 43.5256 92.6153 42.8027 92.6153 41.9722V41.9568C92.6153 41.1212 92.482 40.3983 92.2154 39.7882C91.954 39.173 91.5823 38.6988 91.1004 38.3656C90.6185 38.0272 90.0468 37.858 89.3855 37.858C88.7293 37.858 88.1576 38.0272 87.6706 38.3656C87.1887 38.6988 86.8145 39.173 86.5479 39.7882C86.2864 40.3983 86.1557 41.1212 86.1557 41.9568V41.9722C86.1557 42.8027 86.2838 43.5256 86.5402 44.1408C86.8016 44.756 87.1733 45.2328 87.6552 45.5712C88.1423 45.9095 88.719 46.0787 89.3855 46.0787Z" stroke="#5E7897" stroke-width="0.061946" mask="url(#path-2-outside-1_38_495)"/>
  <path d="M100.056 47.5167V36.42H102.332L105.67 44.9636H105.801L109.13 36.42H111.407V47.5167H109.623V39.6267H108.654L110.622 36.7276L106.408 47.5167H105.055L100.848 36.7276L102.817 39.6267H101.84V47.5167H100.056Z" stroke="#5E7897" stroke-width="0.061946" mask="url(#path-2-outside-1_38_495)"/>
  <path d="M117.294 47.5167V36.42H119.571L122.908 44.9636H123.039L126.369 36.42H128.645V47.5167H126.861V39.6267H125.892L127.86 36.7276L123.646 47.5167H122.293L118.086 36.7276L120.055 39.6267H119.078V47.5167H117.294Z" stroke="#5E7897" stroke-width="0.061946" mask="url(#path-2-outside-1_38_495)"/>
  <path d="M134.532 47.5167V36.42H141.715V38.0887H136.516V41.0955H141.43V42.672H136.516V45.848H141.715V47.5167H134.532Z" stroke="#5E7897" stroke-width="0.061946" mask="url(#path-2-outside-1_38_495)"/>
  <path d="M147.325 47.5167V36.42H151.809C152.603 36.42 153.285 36.561 153.854 36.8429C154.423 37.1249 154.859 37.5222 155.162 38.0349C155.464 38.5476 155.615 39.1576 155.615 39.8651V39.8805C155.615 40.6136 155.431 41.2647 155.062 41.8338C154.698 42.3977 154.188 42.7976 153.531 43.0334L155.954 47.5167H153.693L151.509 43.341C151.499 43.341 151.483 43.341 151.463 43.341C151.442 43.341 151.424 43.341 151.409 43.341H149.31V47.5167H147.325ZM149.31 41.8184H151.601C152.232 41.8184 152.721 41.6518 153.07 41.3185C153.419 40.9853 153.593 40.5213 153.593 39.9266V39.9113C153.593 39.3319 153.411 38.8731 153.047 38.5347C152.688 38.1913 152.193 38.0195 151.563 38.0195H149.31V41.8184Z" stroke="#5E7897" stroke-width="0.061946" mask="url(#path-2-outside-1_38_495)"/>
  <path d="M165.809 47.7936C164.758 47.7936 163.851 47.5577 163.087 47.0861C162.328 46.6144 161.741 45.9454 161.326 45.079C160.916 44.2074 160.711 43.1744 160.711 41.9799V41.9645C160.711 40.7649 160.916 39.7318 161.326 38.8654C161.741 37.9939 162.328 37.3223 163.087 36.8506C163.846 36.379 164.751 36.1431 165.802 36.1431C166.642 36.1431 167.401 36.3098 168.078 36.643C168.755 36.9711 169.306 37.4274 169.731 38.0118C170.157 38.5911 170.413 39.2576 170.5 40.0112L170.493 40.0728H168.555L168.547 40.0343C168.455 39.5985 168.28 39.2192 168.024 38.8962C167.768 38.5681 167.45 38.3143 167.07 38.1349C166.691 37.9503 166.268 37.858 165.802 37.858C165.176 37.858 164.633 38.0246 164.171 38.3579C163.71 38.6911 163.354 39.1653 163.102 39.7805C162.856 40.3906 162.733 41.116 162.733 41.9568V41.9722C162.733 42.813 162.856 43.541 163.102 44.1562C163.354 44.7714 163.71 45.2456 164.171 45.5788C164.633 45.9121 165.179 46.0787 165.809 46.0787C166.281 46.0787 166.704 45.9967 167.078 45.8326C167.458 45.6686 167.773 45.4379 168.024 45.1405C168.28 44.838 168.455 44.4843 168.547 44.0793L168.562 44.0331H170.5V44.0947C170.403 44.8329 170.144 45.4789 169.724 46.0326C169.303 46.5862 168.76 47.0194 168.093 47.3322C167.427 47.6398 166.665 47.7936 165.809 47.7936Z" stroke="#5E7897" stroke-width="0.061946" mask="url(#path-2-outside-1_38_495)"/>
  <path d="M175.865 47.5167V36.42H183.047V38.0887H177.849V41.0955H182.763V42.672H177.849V45.848H183.047V47.5167H175.865Z" stroke="#5E7897" stroke-width="0.061946" mask="url(#path-2-outside-1_38_495)"/>
  <path d="M199.859 47.7936C198.998 47.7936 198.25 47.6603 197.614 47.3937C196.983 47.1271 196.486 46.7554 196.122 46.2786C195.758 45.8019 195.553 45.2456 195.507 44.6099L195.499 44.5022H197.422L197.429 44.5791C197.46 44.8919 197.583 45.1636 197.798 45.3943C198.019 45.625 198.311 45.807 198.675 45.9403C199.039 46.0684 199.454 46.1325 199.921 46.1325C200.367 46.1325 200.762 46.0633 201.105 45.9249C201.449 45.7865 201.718 45.5968 201.913 45.3558C202.107 45.1097 202.205 44.8278 202.205 44.5099V44.5022C202.205 44.1023 202.048 43.7768 201.736 43.5256C201.423 43.2693 200.908 43.0642 200.19 42.9104L198.998 42.6643C197.86 42.4234 197.032 42.0388 196.514 41.5108C196.002 40.9776 195.745 40.2983 195.745 39.4729V39.4652C195.745 38.8039 195.919 38.2246 196.268 37.7273C196.622 37.23 197.106 36.8429 197.722 36.5661C198.342 36.2841 199.052 36.1431 199.852 36.1431C200.672 36.1431 201.382 36.2816 201.982 36.5584C202.582 36.8301 203.053 37.2018 203.397 37.6735C203.74 38.1451 203.933 38.6783 203.974 39.273L203.981 39.373H202.089L202.074 39.2807C202.028 38.9885 201.907 38.7347 201.713 38.5194C201.523 38.2989 201.269 38.1246 200.951 37.9964C200.634 37.8683 200.262 37.8042 199.836 37.8042C199.431 37.8042 199.07 37.8683 198.752 37.9964C198.434 38.1195 198.183 38.2938 197.998 38.5194C197.819 38.7449 197.729 39.0167 197.729 39.3345V39.3422C197.729 39.7318 197.88 40.0548 198.183 40.3111C198.491 40.5675 198.99 40.7674 199.682 40.911L200.874 41.1647C201.654 41.3288 202.287 41.5467 202.774 41.8184C203.261 42.0901 203.617 42.4285 203.843 42.8335C204.074 43.2334 204.189 43.7153 204.189 44.2792V44.2869C204.189 45.0046 204.012 45.625 203.658 46.1479C203.31 46.6708 202.81 47.0758 202.159 47.3629C201.513 47.65 200.746 47.7936 199.859 47.7936Z" stroke="#5E7897" stroke-width="0.061946" mask="url(#path-2-outside-1_38_495)"/>
  <path d="M214.121 47.7936C213.188 47.7936 212.381 47.6218 211.699 47.2783C211.017 46.9349 210.489 46.4555 210.115 45.8403C209.746 45.2251 209.561 44.5099 209.561 43.6948V36.42H211.537V43.5333C211.537 44.0408 211.637 44.4869 211.837 44.8714C212.042 45.2507 212.337 45.5481 212.722 45.7634C213.106 45.9736 213.575 46.0787 214.129 46.0787C214.678 46.0787 215.144 45.9736 215.529 45.7634C215.913 45.5481 216.205 45.2507 216.405 44.8714C216.605 44.4869 216.705 44.0408 216.705 43.5333V36.42H218.682V43.6948C218.682 44.5099 218.497 45.2251 218.128 45.8403C217.759 46.4555 217.233 46.9349 216.551 47.2783C215.875 47.6218 215.065 47.7936 214.121 47.7936Z" stroke="#5E7897" stroke-width="0.061946" mask="url(#path-2-outside-1_38_495)"/>
  <path d="M224.561 47.5167V36.42H226.545V47.5167H224.561Z" stroke="#5E7897" stroke-width="0.061946" mask="url(#path-2-outside-1_38_495)"/>
  <path d="M235.194 47.5167V38.0887H231.779V36.42H240.592V38.0887H237.178V47.5167H235.194Z" stroke="#5E7897" stroke-width="0.061946" mask="url(#path-2-outside-1_38_495)"/>
  <path d="M245.826 47.5167V36.42H253.008V38.0887H247.81V41.0955H252.724V42.672H247.81V45.848H253.008V47.5167H245.826Z" stroke="#5E7897" stroke-width="0.061946" mask="url(#path-2-outside-1_38_495)"/>
  </svg>
